<?xml version="1.0" standalone="no"?>
<!DOCTYPE svg PUBLIC "-//W3C//DTD SVG 20010904//EN"
 "http://www.w3.org/TR/2001/REC-SVG-20010904/DTD/svg10.dtd">
<svg version="1.0" xmlns="http://www.w3.org/2000/svg"
 width="653.000000pt" height="653.000000pt" viewBox="0 0 653.000000 653.000000"
 preserveAspectRatio="xMidYMid meet">
<metadata>
Created by potrace 1.14, written by Peter Selinger 2001-2017
</metadata>
<g transform="translate(0.000000,653.000000) scale(0.100000,-0.100000)"
fill="#000000" stroke="none">
<path d="M0 6474 l0 -55 193 7 c105 3 197 11 204 16 7 5 13 5 17 0 3 -6 24 -6
49 -1 24 4 115 11 203 14 87 3 188 8 224 11 67 5 171 8 510 18 107 4 212 9
234 12 24 4 41 2 46 -5 4 -7 11 -2 18 14 l12 25 -855 0 -855 0 0 -56z"/>
<path d="M1743 6513 c16 -16 19 -16 27 -3 5 8 10 11 10 5 8 -288 9 -502 3
-510 -4 -6 -30 -21 -57 -35 -26 -13 -43 -26 -37 -28 16 -5 81 18 81 29 0 6 4
8 8 5 5 -3 8 -256 7 -563 -3 -698 -2 -648 -19 -634 -18 15 -26 -6 -31 -77 -5
-73 29 -118 38 -49 3 22 4 15 5 -20 2 -47 0 -53 -18 -53 -40 0 -39 -87 2 -109
17 -8 23 -21 24 -46 1 -40 2 -39 -43 -23 -30 11 -33 16 -28 39 l6 27 -35 -16
c-19 -10 -34 -20 -33 -24 3 -10 108 -78 121 -78 8 0 11 -183 9 -717 -1 -579 1
-737 13 -818 16 -114 51 -264 66 -283 14 -16 67 -15 74 2 3 8 -4 58 -15 112
-35 168 -43 279 -42 564 3 865 6 1390 9 1390 1 0 11 -6 22 -12 15 -10 22 -10
31 -1 9 9 5 16 -19 30 -18 10 -32 22 -32 26 0 16 21 47 31 47 6 0 8 -4 5 -9
-3 -4 6 -7 19 -5 14 1 27 -2 31 -7 9 -15 87 31 93 56 1 6 8 9 15 7 7 -1 19 5
26 13 7 8 18 15 26 15 20 0 28 21 13 32 -10 7 -7 7 8 3 13 -3 38 -2 55 3 62
19 203 43 268 47 108 6 204 20 228 33 13 8 36 10 56 6 43 -8 73 2 87 27 18 34
-3 47 -63 39 -38 -5 -59 -3 -73 6 -30 21 -75 17 -115 -11 -38 -27 -87 -37
-185 -39 -33 0 -65 -4 -72 -9 -6 -4 -14 -3 -18 3 -10 16 -25 12 -25 -6 0 -13
-3 -14 -14 -5 -10 8 -16 9 -21 1 -3 -6 -10 -8 -15 -5 -5 3 -23 -1 -40 -10 -17
-9 -40 -13 -50 -10 -11 4 -20 3 -20 -2 0 -4 -11 -8 -24 -8 -17 0 -21 3 -15 11
6 8 2 10 -16 9 -16 -2 -25 2 -25 11 0 17 0 17 -43 -1 -19 -8 -44 -27 -56 -42
-11 -16 -31 -38 -43 -51 l-23 -23 -7 38 c-4 21 -7 298 -7 615 -1 567 -1 578
19 590 11 7 20 19 20 27 0 11 -3 11 -15 1 -25 -21 -27 7 -24 235 5 247 8 257
73 235 19 -6 41 -8 48 -4 7 4 28 11 48 15 19 4 -46 7 -145 8 -171 1 -178 0
-162 -16z m220 -1698 c-3 -9 -8 -14 -10 -11 -3 3 -2 9 2 15 9 16 15 13 8 -4z
m-179 -277 c-1 -13 -3 -27 -3 -32 -1 -5 -8 -3 -16 4 -11 9 -12 17 -4 31 13 26
26 24 23 -3z"/>
<path d="M4483 6516 c6 -15 9 -207 8 -467 -1 -140 -2 -146 -21 -144 -11 1 -26
7 -32 13 -8 8 -15 9 -25 0 -11 -8 -12 -7 -7 5 4 11 0 16 -13 15 -10 0 -27 3
-37 7 -14 6 -17 5 -11 -4 6 -10 2 -11 -16 -7 l-24 7 24 -20 c29 -26 43 -27 34
-3 -6 15 -5 15 10 4 9 -8 13 -20 10 -29 -5 -12 -2 -15 10 -10 9 3 19 2 22 -3
9 -15 25 -12 25 5 0 19 21 15 37 -6 14 -18 21 -872 8 -984 l-8 -69 -28 34
c-22 26 -32 31 -41 22 -8 -8 -8 -15 0 -24 14 -18 5 -29 -40 -50 -21 -10 -38
-22 -38 -28 0 -19 30 -22 55 -6 14 9 31 14 37 10 7 -4 8 -3 4 4 -5 8 0 12 13
12 12 0 21 -6 21 -14 0 -8 4 -16 9 -18 5 -1 11 -12 13 -23 2 -17 -5 -22 -45
-29 -50 -10 -58 -29 -15 -34 29 -4 49 -39 41 -73 -5 -19 -3 -21 15 -17 19 5
21 3 16 -19 -4 -16 -2 -28 7 -34 9 -6 10 -9 2 -9 -9 0 -12 -169 -12 -697 -1
-701 -3 -769 -22 -898 -7 -44 -7 -79 -1 -95 5 -13 5 -38 1 -55 -80 -311 -113
-374 -276 -542 -29 -30 -53 -58 -53 -63 0 -6 -6 -10 -13 -10 -23 0 -113 -113
-103 -129 3 -5 -6 -17 -21 -26 -23 -16 -24 -18 -9 -27 21 -12 48 -3 45 14 -4
31 2 58 12 58 6 0 9 -7 5 -15 -10 -28 9 -15 53 36 25 29 50 48 58 45 7 -3 13
1 13 10 0 23 48 82 79 97 14 7 26 21 26 31 0 10 9 24 20 30 18 10 54 45 73 71
8 11 31 60 42 90 4 11 19 45 33 75 42 90 71 239 77 395 3 49 3 49 11 -18 12
-107 26 -124 50 -64 11 25 14 183 17 765 l3 733 30 -22 c47 -34 119 -1 119 55
0 31 -43 76 -72 76 -22 -1 -21 -2 10 -28 35 -30 40 -52 16 -76 -33 -33 -75
-14 -79 35 -1 18 -7 35 -14 37 -19 6 -12 27 19 54 17 14 30 35 30 47 0 11 -13
36 -30 54 -25 29 -30 43 -30 85 0 45 3 51 23 54 19 3 22 10 25 56 2 31 -1 52
-7 52 -6 0 -11 -18 -11 -40 0 -29 -4 -40 -15 -40 -13 0 -15 101 -13 867 3 816
4 866 21 869 9 1 17 -1 17 -4 0 -4 26 -7 57 -8 182 -2 539 -18 543 -24 3 -4
108 -11 234 -14 126 -4 231 -8 235 -10 6 -4 81 -11 211 -21 41 -2 111 -7 155
-10 144 -10 420 -36 433 -40 9 -3 12 19 12 90 l0 95 -1026 0 c-880 0 -1025 -2
-1021 -14z m86 -343 c1 -269 -1 -303 -15 -303 -18 0 -46 25 -37 34 4 3 0 6 -7
6 -11 0 -11 3 -2 12 9 9 12 85 12 282 0 240 2 271 17 288 17 19 18 19 24 1 4
-10 8 -154 8 -320z m-11 -335 c16 -16 18 -1008 2 -1008 -5 0 -10 9 -10 20 0
12 -7 34 -15 50 -13 26 -18 305 -15 908 0 43 14 54 38 30z m7 -1098 c-3 -5
-14 -10 -23 -9 -14 0 -13 2 3 9 27 11 27 11 20 0z m-68 -65 c0 -11 -4 -12 -14
-4 -7 6 -13 13 -13 15 0 2 6 4 13 4 8 0 14 -7 14 -15z m73 -42 c0 -46 -1 -48
-28 -49 -26 -1 -28 2 -23 25 7 30 32 71 43 71 5 0 8 -21 8 -47z m68 -117 c-2
-11 -9 -21 -15 -24 -9 -2 -13 9 -13 40 1 40 2 42 16 23 8 -11 13 -29 12 -39z
m-68 -8 c-1 -8 -6 -6 -15 6 -20 26 -19 42 0 22 8 -8 15 -21 15 -28z m-3 -712
c-3 -358 -7 -664 -10 -681 -2 -16 -4 -52 -5 -79 -1 -27 -5 -46 -8 -43 -4 4 -6
59 -5 123 1 82 -2 121 -11 132 -7 9 -8 13 -2 9 8 -4 11 48 12 184 1 117 -3
187 -8 184 -6 -4 -10 -1 -10 4 0 6 5 11 10 11 15 0 12 30 -2 31 -10 0 -10 2 0
6 6 2 12 11 12 18 0 7 -6 15 -12 18 -10 3 -10 7 -1 19 8 9 11 35 9 65 -2 27 0
72 4 99 6 35 4 57 -6 76 -15 29 -19 128 -6 128 5 0 9 14 9 30 0 17 -5 30 -10
30 -9 0 -5 69 8 125 5 23 4 26 -4 15 -8 -11 -11 10 -9 81 l3 96 23 -15 24 -16
-5 -650z"/>
<path d="M4532 4230 c0 -14 2 -19 5 -12 2 6 2 18 0 25 -3 6 -5 1 -5 -13z"/>
<path d="M4533 4050 c0 -25 2 -35 4 -22 2 12 2 32 0 45 -2 12 -4 2 -4 -23z"/>
<path d="M2417 6121 c-5 -22 -69 -46 -95 -36 -16 6 -16 7 1 16 26 15 20 29
-13 29 -28 0 -44 -19 -17 -21 6 0 2 -5 -10 -11 -30 -14 -29 -26 2 -34 56 -14
175 28 175 62 0 21 -37 17 -43 -5z"/>
<path d="M2360 6120 c-8 -5 -11 -13 -6 -17 5 -4 11 -3 13 3 2 7 13 10 23 7 11
-3 20 0 20 6 0 13 -29 14 -50 1z"/>
<path d="M2498 6118 c11 -14 6 -19 -33 -38 -25 -12 -42 -26 -39 -31 3 -6 30 4
60 21 29 16 67 30 84 30 16 0 30 5 30 10 0 6 -8 10 -17 10 -10 0 -36 3 -58 7
-35 6 -39 5 -27 -9z"/>
<path d="M2086 6111 c-3 -5 -21 -12 -41 -15 -33 -7 -53 -22 -42 -32 3 -3 15 0
27 6 12 6 24 9 27 6 3 -3 -6 -11 -21 -17 -22 -10 -29 -10 -42 3 -13 12 -21 13
-40 4 -23 -11 -34 -46 -14 -46 6 0 10 4 10 10 0 5 7 7 15 4 8 -4 15 -1 15 5 0
8 5 8 18 0 14 -9 25 -8 50 5 18 9 38 14 44 10 21 -13 59 -11 54 3 -3 7 6 21
21 32 23 19 24 21 7 28 -10 4 -19 2 -22 -5 -2 -7 -10 -12 -18 -12 -8 0 -14 -3
-14 -7 0 -5 -11 -9 -25 -9 -14 -1 -22 2 -19 7 3 5 12 9 20 9 8 0 14 5 14 10 0
12 -17 13 -24 1z"/>
<path d="M2235 6110 c-3 -5 1 -10 9 -10 9 0 16 5 16 10 0 6 -4 10 -9 10 -6 0
-13 -4 -16 -10z"/>
<path d="M2580 6075 c-30 -13 -63 -24 -72 -25 -10 0 -18 -4 -18 -10 0 -13 37
-13 45 0 9 15 56 8 51 -7 -11 -26 26 -12 67 27 l42 39 -30 0 c-16 0 -55 -11
-85 -24z"/>
<path d="M2170 6075 c-10 -12 -10 -19 -2 -27 13 -13 46 -2 37 12 -4 7 3 8 22
4 25 -7 27 -6 14 9 -17 21 -54 22 -71 2z"/>
<path d="M2748 6083 c-16 -2 -28 -9 -28 -15 0 -6 13 -8 34 -4 19 4 37 2 40 -3
10 -16 -36 -41 -74 -40 -23 1 -27 3 -12 6 12 2 22 9 22 14 0 13 -52 10 -72 -4
-15 -12 -15 -14 3 -25 41 -26 136 -7 169 34 11 12 10 17 -6 29 -19 15 -27 15
-76 8z"/>
<path d="M2865 6036 c-19 -15 -18 -15 23 -16 62 0 50 -33 -17 -46 -27 -6 -33
-3 -38 15 -6 24 -25 27 -42 7 -10 -11 -7 -17 11 -30 39 -28 123 -13 157 28 12
15 12 19 0 31 -23 23 -71 28 -94 11z"/>
<path d="M3003 5991 c3 -14 -6 -24 -34 -40 -37 -21 -51 -41 -28 -41 6 0 31 12
55 26 33 19 53 25 74 20 41 -8 41 20 0 29 -16 4 -32 11 -35 16 -12 18 -38 10
-32 -10z"/>
<path d="M4000 6002 c0 -7 64 -52 85 -61 5 -2 16 -10 23 -18 7 -7 19 -13 25
-13 7 0 3 7 -8 15 -11 8 -29 23 -40 33 -24 22 -85 53 -85 44z"/>
<path d="M3908 5992 c-10 -2 -18 -7 -18 -11 0 -12 35 -41 48 -41 7 0 12 -4 12
-10 0 -14 69 -30 93 -21 20 7 18 10 -22 39 -50 36 -80 43 -38 9 15 -13 27 -26
27 -30 0 -9 -50 13 -73 32 -17 14 -17 16 -1 21 14 5 14 8 3 11 -8 3 -22 4 -31
1z"/>
<path d="M4095 5970 c10 -11 22 -20 27 -20 6 0 21 -9 35 -20 16 -12 34 -18 45
-15 10 4 18 2 18 -4 0 -6 8 -11 17 -11 14 0 12 4 -7 25 -13 14 -31 25 -39 25
-14 0 -14 -1 -1 -10 19 -13 8 -13 -25 0 -15 6 -23 15 -19 21 4 8 9 7 15 -2 4
-7 11 -10 16 -6 11 12 -19 27 -39 21 -10 -3 -18 -1 -18 5 0 6 -10 11 -22 11
-20 0 -21 -1 -3 -20z"/>
<path d="M3800 5976 c0 -10 110 -79 116 -73 3 3 -6 13 -20 22 -14 10 -23 22
-19 31 3 9 -1 14 -13 14 -11 0 -29 3 -41 6 -13 4 -23 4 -23 0z"/>
<path d="M3690 5959 c0 -15 24 -34 74 -59 42 -21 86 -26 86 -11 0 13 -59 61
-76 61 -8 0 -14 5 -14 10 0 6 -16 10 -35 10 -20 0 -35 -5 -35 -11z m97 -34
c35 -30 13 -33 -33 -4 -39 24 -42 29 -15 29 11 0 33 -11 48 -25z"/>
<path d="M4220 5962 c0 -15 78 -65 92 -59 8 4 7 6 -4 6 -10 1 -18 5 -18 10 0
5 -9 12 -20 16 -11 3 -19 11 -17 18 1 6 -6 13 -15 15 -10 2 -18 -1 -18 -6z"/>
<path d="M4280 5961 c0 -6 4 -12 9 -15 13 -8 42 4 35 15 -7 12 -44 12 -44 0z"/>
<path d="M3120 5935 c-94 -27 -126 -42 -107 -50 9 -4 23 -3 30 2 12 10 62 -9
52 -19 -3 -3 1 -10 8 -17 12 -9 22 -2 51 34 21 25 34 49 31 55 -7 12 -7 12
-65 -5z m25 -25 c-3 -5 -18 -10 -33 -9 l-27 1 25 8 c35 11 42 11 35 0z"/>
<path d="M3644 5905 c75 -48 103 -51 47 -6 -20 16 -31 33 -27 39 5 9 -7 12
-41 12 l-48 0 69 -45z"/>
<path d="M1643 5926 c-7 -8 -18 -16 -25 -19 -7 -2 -11 -7 -8 -10 3 -3 19 5 35
18 17 13 26 24 20 24 -5 0 -15 -6 -22 -13z"/>
<path d="M3488 5916 c-16 -12 -16 -14 5 -33 44 -39 72 -53 110 -53 34 0 38 3
35 23 -2 15 -19 31 -53 49 -57 30 -73 33 -97 14z m82 -28 c43 -25 51 -38 23
-38 -26 0 -85 39 -78 50 8 14 11 13 55 -12z"/>
<path d="M3220 5880 c0 -5 13 -10 28 -10 37 0 42 -6 28 -35 -10 -22 -56 -42
-56 -24 0 5 -7 9 -15 9 -8 0 -15 5 -15 11 0 7 11 8 30 4 36 -8 38 -1 7 20 -19
12 -29 13 -55 3 -37 -14 -40 -23 -12 -31 13 -3 18 -11 14 -20 -3 -10 15 -28
58 -57 34 -23 64 -37 66 -31 2 7 12 7 28 0 53 -19 114 -7 141 30 15 21 2 36
-51 63 -23 11 -60 34 -83 49 -41 29 -113 41 -113 19z m148 -59 c10 -6 10 -10
-3 -21 -18 -15 -42 0 -31 19 8 13 16 14 34 2z m-55 -38 c-7 -2 -13 -13 -13
-24 0 -25 -9 -24 -45 6 l-30 24 50 0 c28 0 44 -3 38 -6z m90 0 c-7 -2 -19 -2
-25 0 -7 3 -2 5 12 5 14 0 19 -2 13 -5z m-2 -21 c36 6 38 -9 3 -22 -35 -14
-74 -3 -74 21 0 17 3 18 21 8 12 -6 34 -9 50 -7z"/>
<path d="M3380 5881 c0 -7 8 -15 18 -18 9 -4 19 -9 22 -12 12 -14 70 -51 80
-51 19 0 10 16 -21 34 -18 11 -28 23 -25 32 4 10 -2 14 -18 14 -14 0 -31 3
-40 6 -9 3 -16 1 -16 -5z"/>
<path d="M1525 5840 c-3 -5 -1 -10 4 -10 6 0 11 5 11 10 0 6 -2 10 -4 10 -3 0
-8 -4 -11 -10z"/>
<path d="M4647 5823 c-12 -11 -8 -25 5 -17 6 4 17 -1 25 -11 10 -15 13 -15 13
-4 0 26 -29 47 -43 32z"/>
<path d="M1431 5776 c-7 -9 -19 -16 -27 -16 -7 0 -15 -4 -18 -8 -7 -12 43 -7
55 5 6 6 9 17 7 23 -3 9 -8 7 -17 -4z"/>
<path d="M4730 5765 c19 -14 38 -25 44 -25 5 0 -5 11 -24 25 -19 14 -38 25
-44 25 -5 0 5 -11 24 -25z"/>
<path d="M3083 5750 c-44 -18 -16 -57 64 -89 66 -27 101 30 41 67 -43 26 -77
33 -105 22z m75 -30 c33 -20 40 -34 21 -45 -13 -9 -92 43 -84 55 9 15 27 12
63 -10z"/>
<path d="M3512 5734 c15 -16 13 -19 -33 -42 -32 -17 -46 -29 -40 -35 7 -7 28
-1 62 17 36 18 55 24 63 16 12 -12 46 -13 46 -1 0 5 -20 21 -44 35 -52 30 -79
35 -54 10z"/>
<path d="M1322 5696 c-11 -11 -22 -30 -24 -41 -1 -11 -12 -22 -23 -25 -11 -3
-26 -18 -33 -34 -8 -15 -20 -30 -28 -33 -8 -3 -14 -10 -14 -16 0 -5 8 -3 18 6
10 10 24 17 30 17 6 0 14 9 17 21 4 11 12 18 18 16 6 -2 16 0 22 5 5 5 19 16
30 24 19 15 19 15 -10 10 l-30 -6 22 17 c12 10 32 25 45 34 l22 16 -21 5 c-14
4 -28 -2 -41 -16z m21 -1 c-3 -9 -8 -14 -10 -11 -3 3 -2 9 2 15 9 16 15 13 8
-4z"/>
<path d="M4825 5700 c3 -5 8 -10 11 -10 2 0 4 5 4 10 0 6 -5 10 -11 10 -5 0
-7 -4 -4 -10z"/>
<path d="M2960 5693 c1 -11 113 -83 128 -83 22 0 12 15 -23 34 -34 19 -46 36
-24 36 5 0 7 5 4 10 -7 12 -85 14 -85 3z"/>
<path d="M2868 5639 c-10 -5 -18 -16 -18 -23 0 -22 44 -54 86 -64 34 -8 45 -6
65 9 l24 18 -24 25 c-14 14 -41 30 -60 36 -44 12 -51 12 -73 -1z m89 -30 c31
-19 33 -23 19 -37 -13 -14 -19 -13 -56 12 -64 42 -29 66 37 25z"/>
<path d="M4902 5634 c10 -10 20 -15 24 -12 3 4 -5 12 -18 18 -22 12 -22 12 -6
-6z"/>
<path d="M3605 5635 c-5 -2 -31 -6 -57 -10 -52 -7 -66 -25 -20 -25 39 0 74
-27 67 -51 -11 -34 19 -21 58 26 21 25 35 50 32 55 -6 9 -58 13 -80 5z m30
-35 c-3 -5 -12 -10 -20 -10 -8 0 -17 5 -20 10 -4 6 5 10 20 10 15 0 24 -4 20
-10z"/>
<path d="M4937 5604 c-7 -7 30 -44 45 -44 15 0 8 21 -9 27 -10 4 -21 10 -24
15 -3 5 -8 5 -12 2z"/>
<path d="M2791 5565 l-34 -12 56 -37 c31 -21 64 -36 74 -34 14 3 7 11 -25 32
-34 21 -41 30 -32 41 16 19 0 23 -39 10z"/>
<path d="M1248 5549 c-30 -22 -38 -42 -14 -33 12 5 53 55 44 54 -2 0 -15 -10
-30 -21z"/>
<path d="M3730 5545 c7 -8 23 -15 37 -15 28 0 40 -24 23 -45 -24 -29 -100 -16
-100 17 0 17 2 18 15 8 23 -19 31 -3 11 19 -17 19 -19 19 -50 3 l-33 -17 31
-32 c38 -41 82 -51 130 -28 44 21 48 54 10 84 -32 25 -94 30 -74 6z"/>
<path d="M4994 5548 c-4 -6 1 -17 10 -24 12 -8 13 -13 5 -16 -15 -5 31 -53 58
-60 10 -3 27 -9 38 -13 11 -3 7 1 -10 11 -16 9 -35 23 -42 30 -7 7 -18 14 -25
17 -7 2 -9 8 -5 13 4 5 11 4 15 -2 11 -16 42 -25 36 -10 -3 7 -20 18 -39 25
-36 13 -44 26 -22 34 9 4 9 6 0 6 -6 1 -15 -4 -19 -11z"/>
<path d="M1156 5494 c-11 -8 -16 -14 -10 -14 13 0 39 18 34 24 -3 2 -14 -2
-24 -10z"/>
<path d="M2668 5496 c-26 -19 -22 -42 11 -65 38 -27 83 -36 110 -22 33 18 26
48 -19 76 -44 28 -76 31 -102 11z m87 -33 c34 -23 37 -27 19 -33 -16 -6 -78
11 -92 25 -8 8 7 35 20 35 8 0 31 -12 53 -27z"/>
<path d="M1170 5473 c-8 -3 -19 -10 -25 -15 -5 -4 -22 -18 -38 -29 -35 -26
-61 -75 -46 -85 13 -8 29 14 23 31 -6 15 61 75 83 75 17 0 12 -8 -31 -57 -27
-32 -9 -29 20 2 52 56 59 95 14 78z"/>
<path d="M3850 5451 c0 -6 8 -11 18 -11 9 0 26 -7 37 -16 27 -20 9 -48 -34
-52 -37 -4 -61 12 -61 40 0 11 -5 18 -12 16 -45 -15 14 -88 70 -88 68 0 106
55 64 93 -23 21 -82 34 -82 18z"/>
<path d="M5060 5426 c0 -16 58 -71 67 -63 3 4 1 7 -7 7 -9 0 -9 4 -2 13 7 9 1
18 -24 34 -23 15 -34 18 -34 9z"/>
<path d="M2560 5415 c0 -5 26 -27 57 -47 41 -26 61 -34 68 -26 7 7 7 12 0 14
-5 2 -26 14 -45 25 -32 20 -33 23 -15 30 22 9 15 12 -32 13 -18 1 -33 -3 -33
-9z"/>
<path d="M5145 5344 c2 -32 16 -59 33 -59 4 0 20 -9 35 -19 15 -10 30 -17 32
-14 3 2 -16 17 -41 33 -55 35 -65 48 -28 39 19 -5 25 -4 20 5 -4 6 -12 9 -17
6 -5 -3 -6 1 -3 9 3 8 -3 19 -14 25 -18 10 -20 7 -17 -25z"/>
<path d="M3977 5363 c-4 -3 0 -14 8 -23 13 -15 11 -19 -28 -40 -53 -29 -50
-27 -42 -39 4 -7 24 -2 57 15 47 24 51 24 68 9 10 -9 24 -14 30 -10 8 5 -3 22
-31 51 -44 45 -51 49 -62 37z"/>
<path d="M2466 5341 c-23 -25 -14 -52 23 -74 38 -23 84 -22 105 2 23 25 14 51
-25 74 -40 22 -82 22 -103 -2z m82 -21 c35 -21 38 -30 21 -47 -15 -15 -89 20
-89 41 0 31 23 33 68 6z"/>
<path d="M1085 5331 c-41 -25 -91 -81 -98 -108 -6 -27 -6 -27 28 -11 14 6 25
18 25 27 0 11 3 12 11 4 9 -9 22 0 51 37 22 27 37 54 33 60 -9 14 -16 13 -50
-9z m25 -16 c0 -14 -44 -64 -52 -59 -5 3 -15 0 -23 -6 -26 -22 -17 7 13 39 23
26 62 42 62 26z"/>
<path d="M2410 5259 c-8 -5 -26 -9 -40 -9 -21 0 -22 -2 -10 -14 23 -22 107
-66 126 -66 24 0 2 24 -36 40 -30 13 -40 35 -18 42 7 3 8 7 2 11 -5 3 -16 2
-24 -4z"/>
<path d="M5167 5253 c-18 -17 98 -131 136 -133 14 0 -4 44 -29 71 -29 30 -98
71 -107 62z m82 -59 c17 -14 31 -30 31 -34 0 -12 -41 11 -68 38 -32 32 -2 29
37 -4z"/>
<path d="M4037 5217 c-67 -10 -86 -28 -36 -35 33 -5 60 -32 54 -53 -12 -37 15
-27 55 21 35 42 40 53 30 65 -7 8 -18 14 -24 13 -6 0 -42 -6 -79 -11z m61 -33
c-9 -9 -21 -13 -27 -10 -19 12 -12 22 16 24 25 2 26 1 11 -14z"/>
<path d="M1000 5176 c-39 -10 -45 -15 -47 -40 -1 -16 -11 -37 -23 -48 -25 -23
-26 -32 -2 -19 34 20 63 51 58 60 -3 5 1 14 9 21 9 8 15 8 15 2 0 -6 -6 -13
-12 -15 -9 -4 -8 -6 3 -6 18 -1 64 45 52 52 -4 2 -28 -1 -53 -7z"/>
<path d="M2270 5166 c-46 -57 85 -131 135 -76 22 24 14 45 -27 70 -39 23 -90
26 -108 6z m88 -26 c36 -22 38 -43 5 -48 -25 -4 -79 40 -69 56 10 17 26 15 64
-8z"/>
<path d="M5231 5100 c36 -44 42 -48 32 -23 -6 15 -2 14 23 -3 45 -32 54 -36
54 -26 0 9 -121 92 -134 92 -4 0 8 -18 25 -40z"/>
<path d="M4182 5118 c3 -7 13 -15 24 -17 48 -9 60 -54 19 -73 -28 -13 -69 3
-80 30 -7 20 3 28 17 14 28 -28 39 -1 12 29 -15 17 -18 17 -50 2 -36 -17 -45
-33 -19 -33 8 0 15 -6 15 -13 0 -7 11 -25 25 -40 35 -37 77 -36 116 3 27 26
28 32 17 52 -7 12 -22 30 -33 40 -23 20 -69 24 -63 6z"/>
<path d="M995 5088 c-2 -7 -5 -19 -7 -27 -2 -8 -26 -26 -53 -40 -55 -30 -76
-58 -28 -40 15 6 36 18 45 26 17 15 18 14 18 -5 0 -38 19 -24 26 18 4 22 11
43 15 46 12 7 11 34 -1 34 -6 0 -12 -6 -15 -12z"/>
<path d="M2192 5082 c-13 -4 -22 -11 -20 -17 3 -11 105 -75 119 -75 20 0 7 20
-26 40 -38 24 -41 30 -23 48 9 9 8 12 -7 11 -11 -1 -30 -4 -43 -7z"/>
<path d="M5255 5040 c-11 -18 19 -63 65 -96 49 -36 70 -42 70 -20 0 34 -121
138 -135 116z m75 -60 c25 -21 39 -39 31 -40 -16 0 -91 58 -91 71 0 17 15 9
60 -31z"/>
<path d="M2090 4980 c-26 -25 -29 -33 -20 -51 6 -11 19 -23 28 -26 9 -4 20
-11 23 -16 4 -5 23 -9 43 -10 56 -2 87 52 49 85 -16 13 -80 48 -89 48 -2 0
-17 -14 -34 -30z m74 -21 c59 -35 38 -76 -22 -45 -37 19 -44 29 -36 50 8 21
16 20 58 -5z"/>
<path d="M3192 4993 c-13 -23 4 -68 31 -80 22 -10 82 2 74 16 -1 3 -11 23 -20
44 -14 30 -22 37 -47 37 -17 0 -33 -7 -38 -17z"/>
<path d="M2910 4974 c-11 -29 2 -45 50 -62 30 -11 90 11 90 33 0 18 -70 55
-105 55 -18 0 -28 -7 -35 -26z"/>
<path d="M4290 4990 c0 -5 14 -16 30 -25 17 -9 30 -24 30 -34 0 -20 -52 -49
-58 -32 -2 5 -10 7 -18 4 -14 -5 -16 0 -18 41 -2 31 -25 30 -38 -1 -16 -38
-16 -37 -32 -24 -10 8 -16 9 -21 1 -3 -5 2 -10 11 -10 16 0 16 -1 0 -19 -13
-14 -14 -20 -4 -28 30 -23 138 -42 138 -23 0 5 9 10 20 10 11 0 29 9 40 20 18
18 19 25 10 61 -9 32 -18 43 -45 55 -41 17 -45 17 -45 4z m-60 -100 c0 -5 -2
-10 -4 -10 -3 0 -8 5 -11 10 -3 6 -1 10 4 10 6 0 11 -4 11 -10z"/>
<path d="M3576 4975 c-11 -8 -33 -15 -49 -15 -48 0 -26 -22 40 -41 49 -13 66
-14 84 -5 27 13 38 54 17 67 -20 13 -71 10 -92 -6z"/>
<path d="M3762 4963 c4 -34 42 -55 113 -60 27 -1 74 -8 103 -14 59 -12 102 -6
102 14 0 28 -25 37 -100 37 -42 0 -80 3 -83 7 -9 9 -108 43 -125 43 -9 0 -12
-9 -10 -27z"/>
<path d="M930 4938 c-37 -14 -78 -57 -90 -94 -12 -36 -7 -54 16 -54 17 0 18
12 2 28 -15 15 39 86 71 90 26 4 26 -5 1 -43 -11 -16 -20 -34 -20 -39 0 -17
32 19 51 58 23 49 11 70 -31 54z"/>
<path d="M5300 4916 c0 -4 9 -23 20 -43 11 -21 20 -30 20 -20 0 22 12 22 40
-3 24 -21 40 -26 40 -12 0 5 -21 22 -47 39 -65 41 -73 45 -73 39z"/>
<path d="M4696 4770 c-4 -33 -4 -65 -1 -70 15 -24 25 -6 26 48 1 61 2 60 27
-42 4 -16 13 -31 19 -33 10 -4 30 45 35 87 1 8 4 -11 7 -43 8 -79 26 -72 26
11 0 60 -2 67 -20 70 -17 2 -23 -6 -34 -45 l-14 -48 -9 40 c-5 22 -11 50 -14
63 -3 13 -12 22 -23 22 -15 0 -20 -11 -25 -60z"/>
<path d="M5314 4805 c-9 -21 30 -78 74 -109 48 -33 62 -33 62 2 0 33 -4 38
-59 85 -48 40 -68 46 -77 22z m110 -79 c3 -11 4 -21 3 -23 -2 -1 -22 9 -45 23
-27 16 -42 32 -42 45 0 19 1 19 39 -3 22 -13 42 -32 45 -42z"/>
<path d="M844 4747 c-37 -34 -47 -51 -49 -79 -1 -19 -5 -40 -9 -47 -11 -17 3
-13 35 10 20 14 29 29 28 47 0 26 -1 26 -9 5 -10 -24 -30 -32 -30 -12 0 17 39
68 62 80 33 18 42 -3 17 -45 -12 -20 -19 -39 -16 -42 10 -10 47 54 49 87 4 50
-23 49 -78 -4z"/>
<path d="M1668 4752 c-14 -3 -18 -14 -18 -55 0 -102 29 -138 31 -39 1 31 4 47
6 35 6 -32 23 -29 23 5 -1 34 -20 59 -42 54z"/>
<path d="M4870 4686 c0 -49 2 -56 20 -56 11 0 20 -5 20 -11 0 -6 10 -9 23 -7
19 3 22 10 25 51 2 28 -1 47 -7 47 -6 0 -11 -16 -11 -35 0 -23 -5 -35 -14 -35
-23 0 -38 27 -34 61 2 20 -2 34 -9 36 -10 3 -13 -11 -13 -51z"/>
<path d="M5003 4705 c-8 -23 2 -28 26 -15 18 9 25 7 46 -14 28 -28 32 -58 10
-76 -19 -15 -52 -4 -60 21 -7 22 -25 26 -25 4 0 -22 37 -55 69 -61 23 -5 32
-2 41 16 16 31 6 88 -21 116 -26 28 -76 32 -86 9z"/>
<path d="M1598 4643 c-2 -35 -7 -49 -20 -51 -12 -2 -19 6 -24 32 -10 55 -24
43 -24 -21 0 -44 3 -54 12 -45 7 7 24 12 39 12 31 0 39 15 39 76 0 59 -18 56
-22 -3z"/>
<path d="M5340 4666 c0 -8 7 -21 15 -30 8 -8 15 -21 15 -28 0 -10 2 -10 9 1 9
14 38 4 74 -27 9 -8 17 -11 17 -5 0 12 -34 42 -87 76 -32 20 -43 23 -43 13z"/>
<path d="M1414 4651 c-33 -20 -52 -61 -29 -61 8 0 16 9 20 19 7 23 39 33 54
18 33 -33 -11 -113 -49 -89 -12 7 -21 8 -25 2 -15 -25 29 -40 70 -24 20 8 45
56 45 89 0 23 -30 65 -47 65 -5 0 -22 -9 -39 -19z"/>
<path d="M5150 4574 c0 -34 4 -53 10 -49 6 3 10 22 10 41 0 19 4 34 8 34 19 0
32 -27 32 -67 0 -24 5 -43 10 -43 6 0 10 23 10 51 0 40 -5 55 -22 70 -13 10
-31 18 -40 19 -15 0 -18 -9 -18 -56z"/>
<path d="M1305 4588 c-6 -22 -11 -36 -33 -88 -10 -22 -11 -20 -11 23 -1 26 -5
47 -11 47 -6 0 -10 -30 -10 -70 0 -53 3 -70 14 -70 14 0 24 21 46 93 14 45 25
42 28 -9 3 -40 8 -51 18 -41 4 3 3 36 -1 72 -4 44 -11 65 -20 65 -8 0 -16 -10
-20 -22z"/>
<path d="M5260 4540 c0 -40 4 -70 10 -70 6 0 10 17 10 38 0 20 5 44 10 52 7
11 10 6 10 -21 0 -94 32 -136 44 -59 9 57 26 49 26 -12 0 -49 17 -119 33 -134
4 -4 7 3 7 15 l0 22 45 -27 c46 -26 64 -18 23 10 -18 13 -19 16 -5 16 23 0 31
39 18 88 -12 44 -66 95 -114 107 -23 6 -27 3 -32 -22 -11 -46 -14 -53 -25 -53
-5 0 -10 15 -10 34 0 46 -16 86 -35 86 -12 0 -15 -14 -15 -70z m165 -22 c30
-13 32 -24 6 -31 -21 -5 -41 9 -41 30 0 16 2 16 35 1z m19 -88 c8 0 19 -7 26
-15 10 -13 9 -15 -9 -15 -11 0 -21 4 -21 9 0 5 -7 12 -16 15 -12 4 -15 2 -10
-9 3 -8 2 -15 -2 -15 -17 0 -32 26 -32 54 l0 31 25 -28 c14 -15 32 -27 39 -27z
m16 30 c0 -5 -5 -10 -11 -10 -5 0 -7 5 -4 10 3 6 8 10 11 10 2 0 4 -4 4 -10z"/>
<path d="M810 4583 c-34 -6 -47 -20 -32 -35 17 -17 15 -63 -3 -78 -8 -7 -15
-20 -15 -28 0 -10 26 9 65 48 89 89 86 111 -15 93z m30 -58 c-17 -21 -30 -19
-30 4 0 11 8 21 18 23 22 5 27 -8 12 -27z"/>
<path d="M1154 4520 c-35 -14 -54 -50 -54 -103 0 -54 12 -65 57 -50 20 7 33
23 48 57 17 43 18 50 5 73 -17 31 -27 35 -56 23z m36 -63 c0 -41 -10 -56 -40
-59 -23 -3 -25 0 -25 37 0 32 5 42 24 52 32 15 41 9 41 -30z"/>
<path d="M863 4459 c-7 -7 -13 -22 -13 -34 0 -15 -14 -28 -55 -48 -30 -15 -55
-31 -55 -37 0 -16 18 -12 66 16 l44 26 0 -47 c0 -42 -2 -46 -20 -40 -25 8 -45
-7 -76 -56 -18 -29 -27 -36 -47 -32 -28 6 -67 -36 -67 -71 0 -18 3 -16 20 12
23 38 35 40 51 10 16 -29 -16 -92 -43 -85 -24 7 -34 -11 -16 -29 13 -13 19
-11 46 14 18 17 32 40 32 52 0 18 4 21 24 16 31 -8 79 31 103 82 29 65 63 93
63 52 0 -11 5 -20 11 -20 7 0 8 22 4 68 -4 37 -9 68 -10 70 -2 2 -12 -1 -24
-7 -19 -11 -20 -8 -23 44 -2 45 -5 54 -15 44z m47 -139 c0 -11 -2 -20 -4 -20
-2 0 -11 -3 -20 -6 -19 -7 -22 16 -4 34 18 18 28 15 28 -8z m-95 -136 c-14
-18 -30 -34 -36 -34 -18 0 -8 27 21 55 17 16 31 36 31 44 1 9 4 6 6 -7 3 -15
-5 -36 -22 -58z m-5 62 c0 -3 -11 -17 -25 -32 -14 -15 -25 -21 -25 -14 0 15
29 50 42 50 4 0 8 -2 8 -4z"/>
<path d="M5527 4418 c-8 -62 6 -95 51 -121 l32 -19 0 75 c0 75 0 76 -34 96
-18 12 -36 21 -38 21 -3 0 -8 -23 -11 -52z m55 5 c21 -19 23 -33 5 -33 -18 0
-49 34 -40 43 9 10 14 9 35 -10z m-11 -53 c21 -12 26 -40 6 -40 -17 0 -37 20
-37 37 0 16 5 16 31 3z"/>
<path d="M1040 4431 c0 -20 -8 -35 -22 -46 -22 -15 -23 -14 -28 9 -4 19 -9 23
-19 17 -10 -7 -12 -24 -6 -75 7 -69 25 -91 25 -32 0 25 7 39 22 50 31 22 38
20 38 -9 0 -14 5 -25 10 -25 11 0 14 98 4 124 -10 26 -24 18 -24 -13z"/>
<path d="M1592 4344 c-17 -12 -22 -24 -20 -47 2 -26 11 -36 46 -54 l44 -23 29
21 c44 31 39 62 -14 94 -51 29 -55 30 -85 9z m69 -31 c31 -18 39 -50 14 -59
-8 -3 -30 4 -50 16 -39 24 -37 22 -29 44 8 21 29 20 65 -1z"/>
<path d="M5634 4335 c-5 -19 0 -30 17 -45 13 -10 28 -19 32 -20 5 0 6 -4 2
-10 -8 -13 -33 -1 -38 18 -3 12 -5 11 -6 -5 0 -12 9 -29 21 -37 51 -36 69 50
20 97 -35 33 -40 33 -48 2z m46 -25 c10 -19 10 -20 -9 -8 -22 13 -28 28 -11
28 5 0 14 -9 20 -20z"/>
<path d="M5720 4333 c0 -5 14 -20 32 -35 34 -27 32 -51 -2 -30 -27 17 -27 -8
-1 -32 11 -10 21 -32 23 -49 2 -17 9 -32 16 -35 9 -3 12 15 12 70 0 71 -1 73
-33 96 -35 23 -47 27 -47 15z"/>
<path d="M4786 4292 c5 -26 2 -29 -35 -42 -46 -15 -68 -34 -52 -45 6 -3 32 3
58 15 l48 21 17 -20 c22 -29 31 -26 23 7 -7 30 -46 92 -57 92 -4 0 -5 -13 -2
-28z"/>
<path d="M5375 4289 c-21 -33 23 -108 82 -138 35 -18 43 -13 43 27 0 45 -18
73 -64 101 -37 24 -52 26 -61 10z m93 -62 c46 -42 15 -65 -38 -27 -26 19 -44
53 -33 64 7 7 43 -12 71 -37z"/>
<path d="M1540 4225 c-7 -8 -19 -15 -26 -15 -8 0 -14 -6 -14 -12 0 -15 114
-80 124 -71 13 13 5 23 -34 43 -35 18 -39 23 -30 40 13 23 -3 35 -20 15z"/>
<path d="M5828 4174 c-2 -25 0 -51 4 -57 4 -7 8 8 8 31 0 64 24 49 30 -19 l6
-54 8 49 c5 29 5 51 -1 55 -5 3 -12 14 -16 24 -13 35 -35 19 -39 -29z"/>
<path d="M5910 4183 c0 -20 12 -73 25 -113 7 -22 6 -23 -9 -11 -21 17 -31 9
-18 -16 13 -24 51 -58 58 -51 3 3 -2 33 -10 66 -21 78 -21 88 -1 72 9 -7 19
-10 22 -6 4 4 -9 23 -30 42 -29 28 -37 32 -37 17z"/>
<path d="M602 4085 c0 -33 3 -69 8 -80 7 -16 9 -13 9 15 0 19 -4 55 -8 80 l-8
45 -1 -60z"/>
<path d="M4741 4121 c7 -10 18 -17 25 -14 18 7 43 -47 37 -80 -8 -39 6 -33 55
25 61 71 56 82 -46 86 -80 3 -82 2 -71 -17z m114 -31 c-14 -15 -21 -17 -32 -9
-22 19 -15 29 19 29 30 0 31 0 13 -20z"/>
<path d="M5375 4123 c4 -10 10 -28 12 -40 6 -26 20 -30 25 -7 2 13 11 10 46
-15 35 -26 42 -28 42 -14 0 17 -58 63 -79 63 -5 0 -14 7 -21 15 -17 21 -34 19
-25 -2z"/>
<path d="M1436 4098 c-24 -34 -20 -54 19 -84 59 -45 119 -29 113 29 -3 34 -36
62 -85 72 -25 5 -34 2 -47 -17z m89 -32 c27 -22 29 -26 14 -40 -30 -31 -106
18 -84 54 10 17 38 11 70 -14z"/>
<path d="M541 4073 c-17 -21 -31 -41 -31 -45 0 -3 14 -17 30 -30 l31 -24 -21
-19 c-11 -10 -20 -27 -20 -37 0 -15 6 -12 30 15 37 43 38 60 3 86 -18 13 -24
23 -17 28 14 10 37 53 31 59 -3 3 -19 -12 -36 -33z"/>
<path d="M759 4080 c-28 -28 -30 -33 -27 -100 1 -39 4 -69 8 -67 3 1 17 9 33
16 21 11 27 21 27 48 0 18 -4 33 -10 33 -5 0 -10 -9 -10 -19 0 -28 -17 -35
-25 -11 -17 53 27 113 70 96 15 -5 16 -16 11 -64 l-6 -57 19 40 c24 50 25 60
5 90 -22 34 -59 32 -95 -5z"/>
<path d="M5993 4030 c0 -47 2 -66 4 -42 2 23 2 61 0 85 -2 23 -4 4 -4 -43z"/>
<path d="M6025 4050 c-9 -15 3 -30 20 -24 19 8 37 -30 33 -72 -4 -45 -19 -47
-40 -4 -21 42 -24 23 -4 -24 16 -39 28 -48 50 -40 24 9 21 98 -5 140 -20 34
-42 43 -54 24z"/>
<path d="M5374 4005 c-17 -43 17 -105 73 -134 40 -21 53 -14 53 27 0 45 -18
73 -64 101 -40 25 -55 26 -62 6z m85 -54 c37 -35 39 -51 8 -51 -27 0 -82 53
-73 69 12 18 32 12 65 -18z"/>
<path d="M4910 3995 c0 -8 7 -15 15 -15 17 0 35 -30 35 -58 0 -22 -42 -47 -64
-39 -23 9 -39 54 -26 75 9 16 9 16 10 0 0 -10 7 -18 15 -18 18 0 19 9 0 33
-10 15 -21 17 -44 12 -31 -7 -39 -19 -21 -30 6 -3 10 -16 10 -29 0 -60 100
-93 134 -44 22 31 20 56 -6 95 -24 34 -58 45 -58 18z"/>
<path d="M1383 3974 c-31 -13 -45 -34 -23 -34 5 0 32 -13 60 -30 56 -33 70
-36 70 -17 0 8 -18 22 -40 33 -34 16 -40 23 -35 42 3 12 4 22 3 21 -2 0 -18
-7 -35 -15z"/>
<path d="M473 3951 c-23 -24 -30 -71 -17 -105 12 -31 22 -5 12 30 -8 29 -7 40
5 51 13 13 15 10 21 -21 4 -20 11 -36 16 -36 12 0 12 4 -3 61 l-12 45 -22 -25z"/>
<path d="M6120 3945 c0 -9 7 -18 15 -21 23 -9 19 -33 -5 -27 -16 4 -20 0 -20
-22 0 -23 2 -26 15 -15 12 10 16 9 21 -4 10 -26 23 -8 20 27 -2 36 -22 77 -36
77 -6 0 -10 -7 -10 -15z"/>
<path d="M2698 3944 c-3 -3 0 -29 8 -57 17 -64 17 -67 -1 -43 -8 11 -15 32
-15 47 0 38 -19 47 -42 19 -22 -27 -23 -59 -3 -86 8 -10 15 -22 15 -25 0 -3
-29 -11 -63 -18 -110 -22 -224 -104 -264 -192 -10 -22 -32 -46 -50 -56 -18
-10 -33 -21 -33 -25 0 -20 -17 -4 -34 33 -13 28 -23 39 -33 34 -9 -3 -21 1
-27 9 -24 32 -81 23 -122 -18 -27 -27 -34 -42 -34 -75 0 -55 16 -86 56 -107
19 -10 34 -20 34 -21 0 -1 -10 -26 -21 -55 -31 -77 -35 -215 -8 -277 46 -105
69 -136 69 -93 0 13 2 14 9 3 5 -7 14 -10 20 -7 16 10 14 0 -5 -18 -8 -9 -12
-20 -9 -26 11 -18 62 28 80 72 21 54 36 73 45 58 4 -7 22 7 45 35 52 64 57 48
6 -20 -24 -31 -40 -62 -37 -70 5 -14 -14 -65 -25 -65 -3 0 -4 12 -2 28 4 25 3
25 -8 7 -7 -11 -20 -25 -30 -32 -9 -7 -19 -24 -21 -38 -4 -20 1 -28 25 -40 25
-12 32 -13 38 -3 4 7 15 22 23 33 12 15 16 16 16 5 0 -12 2 -12 10 2 7 11 7
26 0 44 -6 15 -8 29 -5 32 3 3 5 0 5 -6 0 -29 22 -8 44 42 23 51 42 74 52 63
3 -3 -3 -22 -14 -44 -24 -48 -36 -109 -23 -118 11 -6 61 65 61 87 0 10 3 9 9
-1 5 -7 14 -10 20 -7 19 12 12 -7 -18 -53 -24 -36 -28 -48 -19 -67 8 -18 7
-26 -5 -38 -22 -22 -25 -20 -19 11 4 21 2 25 -12 20 -11 -5 -16 -1 -16 13 0
28 -14 25 -45 -11 -29 -35 -28 -54 1 -54 10 0 24 -3 29 -6 6 -3 22 -9 37 -13
25 -6 26 -8 21 -64 -5 -57 -4 -60 31 -95 20 -21 43 -37 50 -37 7 0 21 17 29
38 14 31 13 11 0 -25 -8 -21 35 -15 67 9 17 12 30 30 30 39 0 10 5 21 10 24
17 11 11 70 -10 93 -26 28 -25 36 6 51 24 11 31 7 93 -42 36 -30 107 -84 156
-120 50 -37 102 -76 116 -87 15 -11 35 -23 44 -26 13 -5 16 -15 12 -43 -8 -58
5 -126 25 -126 10 0 23 -6 30 -14 11 -11 9 -13 -11 -8 -22 5 -23 3 -17 -26 4
-19 23 -48 47 -70 39 -37 40 -39 28 -72 -11 -29 -10 -40 4 -70 18 -38 57 -60
88 -50 11 4 19 13 19 21 0 8 4 13 10 9 15 -9 52 34 45 54 -4 15 3 20 42 28 27
6 56 14 66 18 13 5 17 2 17 -11 0 -11 9 -34 20 -52 11 -18 20 -40 20 -49 0
-23 82 -99 128 -119 52 -22 157 -22 210 -1 60 24 118 73 132 111 7 17 18 43
25 59 6 15 13 54 14 87 2 50 -3 68 -29 114 l-30 55 36 37 c49 51 90 126 110
203 10 36 18 67 20 69 1 2 13 -3 26 -11 12 -8 46 -15 74 -16 47 -2 53 1 78 33
30 40 44 90 27 100 -6 4 -9 12 -5 18 10 16 -47 67 -84 74 -19 4 -45 1 -60 -6
-26 -11 -26 -12 -8 -25 10 -8 44 -19 75 -26 42 -9 51 -14 36 -19 -11 -4 -46 2
-83 14 -46 15 -67 18 -79 10 -14 -9 -22 0 -49 56 -17 37 -46 83 -64 104 l-33
38 29 24 c52 43 60 45 89 22 20 -15 29 -18 38 -9 16 16 37 14 37 -4 0 -22 31
-18 60 8 49 42 64 111 33 147 -10 11 -26 29 -36 40 -15 17 -28 20 -82 18 -35
-1 -67 1 -71 5 -10 10 -84 -32 -84 -47 0 -8 15 -19 34 -26 28 -9 42 -7 85 10
56 22 71 24 71 12 0 -5 -26 -17 -57 -28 -31 -10 -58 -25 -61 -32 -2 -8 2 -10
14 -5 16 6 17 5 4 -9 -8 -9 -19 -13 -25 -8 -24 18 -58 18 -74 0 -9 -10 -28
-26 -43 -35 -25 -15 -28 -15 -28 -2 0 9 8 18 18 21 29 9 65 53 59 70 -11 29
-107 6 -107 -25 0 -5 6 -9 14 -9 9 0 12 -7 9 -21 -5 -19 -7 -19 -15 -5 -5 9
-14 13 -20 10 -7 -4 -8 -2 -4 4 4 7 1 12 -7 12 -18 0 -11 40 7 40 6 1 27 14
46 30 23 20 45 30 68 30 26 0 81 19 100 35 1 1 -2 14 -9 28 -9 21 -15 24 -38
17 -48 -14 -101 -44 -101 -57 0 -7 -6 -10 -16 -6 -10 3 -22 0 -28 -8 -6 -8
-24 -21 -41 -29 -16 -8 -42 -23 -58 -33 -15 -10 -35 -17 -45 -15 -13 3 -6 11
26 32 23 16 41 30 39 32 -7 7 -76 -17 -87 -31 -14 -17 -30 -20 -30 -5 0 12 43
41 67 44 10 2 19 12 21 24 2 12 11 24 21 27 10 3 22 15 28 27 12 27 52 33 46
7 -3 -10 -15 -19 -26 -21 -26 -4 -37 -38 -13 -38 9 0 24 9 33 20 11 12 30 20
50 20 35 0 103 28 103 42 0 16 -75 40 -128 42 -39 1 -57 -3 -66 -15 -6 -9 -20
-18 -31 -20 -12 -3 -23 -17 -29 -39 -9 -32 -31 -59 -48 -60 -4 0 -5 6 -2 14
12 31 -19 26 -51 -8 -19 -21 -36 -32 -40 -26 -6 10 21 45 78 102 15 15 27 32
27 38 0 11 -41 30 -64 30 -19 0 -52 -27 -43 -36 4 -5 13 -2 18 6 7 11 9 7 7
-15 -2 -22 -9 -31 -25 -33 -15 -2 -25 -13 -29 -28 -10 -40 -27 -28 -20 14 4
20 10 54 13 75 l6 37 -40 0 c-24 0 -46 -6 -53 -15 -7 -8 -17 -15 -23 -15 -6 0
-19 -8 -30 -17 -20 -17 -20 -17 -14 1 4 10 2 25 -4 33 -7 7 -9 17 -5 20 4 4
10 2 14 -4 4 -6 15 -7 30 -2 20 8 28 33 23 75 -1 6 6 17 14 24 17 14 21 75 5
85 -18 11 -76 -25 -128 -80 -29 -30 -52 -57 -52 -60 0 -9 41 -5 63 6 22 12 22
11 4 -8 -19 -21 -67 -37 -67 -22 0 5 -11 11 -25 15 -14 3 -25 11 -25 16 0 5
32 41 71 79 57 55 67 69 49 69 -12 0 -18 4 -15 10 3 5 18 7 33 4 19 -4 33 0
45 14 22 24 16 41 -26 70 -50 33 -107 30 -152 -9 -19 -17 -32 -35 -29 -40 3
-5 10 -6 16 -3 7 5 8 2 3 -6 -5 -9 -2 -10 13 -6 11 4 23 2 27 -4 6 -10 -5 -13
-42 -10 -21 1 -28 -4 -72 -60 -10 -14 -22 -22 -26 -19 -3 4 5 19 19 34 32 35
32 39 1 33 -35 -7 -33 20 3 33 28 11 82 57 82 71 0 15 -27 8 -64 -17 -37 -25
-38 -25 -43 -5 -5 17 -12 22 -33 22 -3 0 -15 -3 -26 -6 -19 -6 -21 -3 -16 19
2 14 8 25 13 25 39 0 -49 72 -91 75 -24 1 -29 -3 -34 -28 -9 -43 -8 -47 10
-47 8 0 12 -5 9 -10 -4 -6 -11 -7 -17 -4 -6 4 -17 -1 -24 -11 -13 -17 -15 -17
-31 -2 -17 15 -22 17 -40 17 -5 0 -3 4 4 8 7 4 13 28 15 52 l3 45 -42 -3 c-37
-3 -44 0 -54 21 -15 33 -73 59 -91 41z m339 -160 c-3 -3 -12 -4 -19 -1 -8 3
-5 6 6 6 11 1 17 -2 13 -5z m56 -84 c-3 -12 0 -20 8 -20 8 0 5 -6 -7 -14 -27
-21 -41 -3 -20 28 20 31 26 33 19 6z m227 -40 c0 -5 -4 -10 -10 -10 -5 0 -10
5 -10 10 0 6 5 10 10 10 6 0 10 -4 10 -10z m101 -157 c-8 -15 -10 -15 -11 -2
0 17 10 32 18 25 2 -3 -1 -13 -7 -23z m-1251 -53 c0 -5 -2 -10 -4 -10 -3 0 -8
5 -11 10 -3 6 -1 10 4 10 6 0 11 -4 11 -10z m93 -27 c3 -5 1 -17 -3 -27 -7
-20 -12 -16 -23 17 -6 17 17 26 26 10z m1277 -33 c0 -5 -7 -10 -16 -10 -8 0
-12 5 -9 10 3 6 10 10 16 10 5 0 9 -4 9 -10z m385 -30 c-3 -5 -11 -10 -16 -10
-6 0 -7 5 -4 10 3 6 11 10 16 10 6 0 7 -4 4 -10z m-1655 -32 c0 -18 -31 -48
-51 -48 -25 0 -49 -27 -49 -56 0 -13 -4 -24 -10 -24 -5 0 -10 5 -10 10 0 7 -7
7 -21 0 -36 -20 -29 -6 17 35 25 22 58 52 72 67 28 29 52 36 52 16z m-15 -68
c-20 -23 -29 -21 -19 4 3 9 13 16 22 16 13 0 12 -3 -3 -20z m1932 -46 c-3 -3
-12 -4 -19 -1 -8 3 -5 6 6 6 11 1 17 -2 13 -5z m-2102 -52 c-3 -4 -10 0 -15 8
-6 9 -5 17 3 22 13 8 24 -19 12 -30z m232 2 c2 -5 -10 -17 -25 -26 -16 -10
-34 -32 -39 -50 l-11 -33 -1 32 c-1 17 -6 35 -11 38 -13 8 13 35 34 35 8 0 18
5 21 11 8 12 27 8 32 -7z m1858 -14 c-3 -5 -12 -10 -18 -10 -7 0 -6 4 3 10 19
12 23 12 15 0z m-2035 -30 c0 -5 -4 -10 -10 -10 -5 0 -10 5 -10 10 0 6 5 10
10 10 6 0 10 -4 10 -10z m1966 -25 c-15 -14 -31 -25 -37 -25 -16 0 -10 20 9
27 9 4 23 13 31 20 7 8 16 12 19 9 3 -3 -7 -17 -22 -31z m-1891 -15 c-14 -16
-16 -23 -7 -32 15 -15 16 -55 2 -63 -6 -3 -10 5 -10 19 0 14 -8 29 -17 34 -15
9 -13 13 12 36 33 31 46 35 20 6z m325 -272 c-12 -24 -22 -55 -22 -70 1 -31
-9 -36 -28 -13 -11 13 -9 20 9 38 11 13 21 30 21 38 0 18 30 62 37 55 3 -3 -5
-24 -17 -48z m1619 -72 c10 -11 6 -13 -21 -10 -18 1 -35 3 -38 4 -9 1 25 20
36 20 6 0 17 -6 23 -14z m-1589 -51 c0 -8 -4 -15 -10 -15 -5 0 -10 7 -10 15 0
8 5 15 10 15 6 0 10 -7 10 -15z m1585 -15 c3 -5 2 -10 -4 -10 -5 0 -13 5 -16
10 -3 6 -2 10 4 10 5 0 13 -4 16 -10z m-977 -362 c-3 -7 -13 -13 -23 -13 -10
0 -20 6 -22 13 -3 7 5 12 22 12 17 0 25 -5 23 -12z m92 5 c0 -9 -45 -53 -54
-53 -13 0 -5 20 16 40 22 20 38 26 38 13z m20 -23 c0 -5 -4 -10 -10 -10 -5 0
-10 5 -10 10 0 6 5 10 10 10 6 0 10 -4 10 -10z m497 -18 c7 -4 9 -13 4 -21 -5
-7 -14 -10 -20 -7 -6 4 -11 1 -12 -6 0 -7 -4 -4 -8 7 -11 27 11 43 36 27z m77
2 c23 -9 20 -23 -4 -17 -11 3 -20 9 -20 14 0 11 3 11 24 3z m-594 -24 c0 -5
-2 -10 -4 -10 -3 0 -8 5 -11 10 -3 6 -1 10 4 10 6 0 11 -4 11 -10z m549 -155
c-1 -29 -1 -29 -9 -5 -4 14 -8 34 -9 45 -1 16 1 17 9 5 5 -8 9 -28 9 -45z"/>
<path d="M386 3900 c-28 -33 -29 -53 -1 -30 23 19 30 5 11 -22 -24 -34 -21
-56 4 -33 20 18 20 17 20 -9 0 -16 4 -25 10 -21 10 6 4 91 -10 129 -6 16 -9
15 -34 -14z"/>
<path d="M2908 3849 c-5 -51 6 -59 27 -18 18 33 14 59 -9 59 -9 0 -15 -14 -18
-41z"/>
<path d="M732 3866 c-3 -5 4 -16 16 -24 26 -17 30 -67 6 -93 -9 -10 -13 -23
-9 -28 8 -14 124 108 125 132 0 19 -4 20 -78 21 -30 1 -56 -3 -60 -8z m108
-24 c0 -5 -11 -19 -25 -32 l-25 -23 0 26 c0 23 9 31 43 36 4 0 7 -3 7 -7z"/>
<path d="M1302 3858 c-38 -38 11 -112 74 -112 39 0 54 15 54 56 0 50 -93 91
-128 56z m76 -28 c34 -21 40 -41 19 -58 -10 -8 -22 -6 -45 8 -38 23 -51 48
-31 61 19 12 19 12 57 -11z"/>
<path d="M6180 3834 c0 -20 7 -51 16 -70 9 -19 14 -43 11 -54 -3 -11 -2 -22 3
-25 20 -12 27 117 8 158 -19 39 -38 34 -38 -9z m40 -40 c0 -8 -6 -11 -15 -8
-8 4 -15 15 -15 26 0 17 3 18 15 8 8 -7 15 -19 15 -26z"/>
<path d="M5350 3835 c0 -8 5 -15 10 -15 6 0 10 -15 10 -32 1 -30 2 -31 14 -15
17 22 25 21 56 -3 30 -23 50 -25 50 -5 0 8 -4 15 -8 15 -4 0 -32 16 -62 35
-61 39 -70 42 -70 20z"/>
<path d="M4990 3832 c0 -4 9 -13 20 -20 40 -24 16 -91 -33 -92 -22 0 -39 43
-31 76 4 17 2 24 -9 24 -38 0 -28 -89 13 -113 69 -41 141 44 94 111 -14 21
-54 31 -54 14z"/>
<path d="M6124 3829 c-6 -11 23 -49 38 -49 15 0 8 25 -12 42 -12 11 -22 13
-26 7z"/>
<path d="M2203 3791 c-43 -36 -18 -111 36 -111 33 0 71 37 71 68 0 29 -34 62
-62 62 -13 -1 -33 -9 -45 -19z"/>
<path d="M330 3784 c0 -8 5 -24 10 -35 8 -14 6 -27 -6 -50 -12 -24 -12 -30 -2
-27 7 3 14 14 16 26 2 12 8 22 13 22 10 0 12 40 3 64 -8 21 -34 21 -34 0z"/>
<path d="M6247 3750 c-5 -25 -11 -60 -14 -77 -3 -21 -1 -33 6 -33 6 0 11 7 11
16 0 9 6 14 13 11 7 -2 11 -20 10 -46 -2 -48 12 -55 21 -10 7 35 6 124 -1 97
-11 -42 -28 -14 -36 57 -2 26 -4 24 -10 -15z"/>
<path d="M277 3743 c-21 -39 -25 -177 -4 -171 30 11 40 52 31 129 l-9 74 -18
-32z m13 -40 c0 -5 -5 -15 -10 -23 -8 -12 -10 -11 -10 8 0 12 5 22 10 22 6 0
10 -3 10 -7z m-1 -85 c-8 -16 -14 -19 -17 -9 -2 7 2 24 9 39 11 19 15 21 17 9
2 -9 -2 -26 -9 -39z"/>
<path d="M310 3732 c0 -34 14 -43 24 -15 4 9 0 23 -9 32 -13 14 -15 12 -15
-17z"/>
<path d="M857 3743 c-4 -3 -7 -18 -7 -32 0 -21 -10 -32 -50 -54 -28 -16 -50
-35 -50 -43 0 -18 0 -18 54 12 49 27 66 25 66 -9 0 -12 4 -17 9 -11 10 11 2
144 -8 144 -4 0 -11 -3 -14 -7z"/>
<path d="M1251 3724 c-13 -13 -22 -26 -20 -28 15 -13 131 -67 135 -63 10 10
-6 27 -45 47 -32 16 -38 23 -34 45 6 31 -4 30 -36 -1z"/>
<path d="M5337 3713 c-4 -3 -7 -24 -7 -46 0 -31 6 -45 31 -68 33 -31 71 -45
88 -34 6 3 11 25 11 49 0 31 -6 48 -22 63 -41 37 -85 53 -101 36z m108 -84
c12 -38 -11 -45 -55 -15 -36 24 -50 52 -34 69 11 11 82 -32 89 -54z"/>
<path d="M5070 3680 c0 -32 -4 -37 -45 -53 -25 -11 -45 -25 -45 -33 0 -11 10
-10 52 6 56 21 68 19 68 -12 0 -16 3 -18 13 -9 12 9 11 19 -3 62 -23 68 -40
84 -40 39z"/>
<path d="M6310 3641 c0 -10 7 -24 15 -31 12 -10 15 -10 15 3 0 23 -11 47 -21
47 -5 0 -9 -8 -9 -19z"/>
<path d="M1196 3611 c-9 -10 -16 -32 -16 -49 0 -37 42 -72 88 -72 25 0 32 6
41 31 13 39 2 63 -42 86 -44 23 -53 24 -71 4z m81 -40 c26 -19 29 -36 7 -45
-26 -10 -40 -7 -68 15 -21 17 -24 24 -15 40 11 22 37 19 76 -10z"/>
<path d="M225 3610 c-9 -14 3 -60 15 -60 11 0 10 59 -1 66 -4 2 -11 -1 -14 -6z"/>
<path d="M178 3561 c-4 -13 -3 -32 3 -42 5 -10 9 -36 9 -59 0 -27 4 -39 11
-35 6 4 9 21 8 39 -2 17 3 41 9 53 13 23 6 57 -9 47 -5 -3 -10 -17 -10 -32 -1
-19 -4 -16 -8 13 -6 35 -7 37 -13 16z"/>
<path d="M799 3529 c-36 -39 -40 -103 -9 -137 12 -12 25 -22 30 -22 15 0 12
26 -5 40 -18 15 -20 84 -2 97 46 36 71 20 69 -47 -1 -44 1 -50 14 -40 19 16
18 90 -2 118 -22 32 -60 28 -95 -9z"/>
<path d="M6350 3546 c0 -8 5 -18 10 -21 6 -3 10 3 10 14 0 12 -4 21 -10 21 -5
0 -10 -6 -10 -14z"/>
<path d="M5300 3544 c0 -3 5 -14 11 -25 6 -11 12 -30 14 -41 6 -29 15 -35 15
-10 0 27 3 27 51 0 28 -15 42 -19 50 -11 7 7 -9 23 -55 52 -61 38 -86 49 -86
35z"/>
<path d="M6310 3518 c0 -7 7 -22 15 -32 12 -16 15 -17 15 -4 0 24 -11 48 -21
48 -5 0 -9 -6 -9 -12z"/>
<path d="M227 3513 c-4 -3 -7 -13 -7 -21 0 -12 3 -12 15 -2 8 7 15 16 15 21 0
11 -14 12 -23 2z"/>
<path d="M5010 3500 c0 -5 9 -14 20 -20 28 -15 44 -58 29 -76 -6 -7 -7 -18 -3
-25 4 -8 25 8 60 46 67 72 62 85 -37 85 -38 0 -69 -4 -69 -10z m110 -28 c0
-10 -21 -32 -31 -32 -4 0 -9 9 -12 20 -4 16 0 20 19 20 13 0 24 -4 24 -8z"/>
<path d="M150 3463 c0 -21 -7 -51 -15 -67 -8 -15 -15 -37 -15 -47 0 -11 -7
-19 -15 -19 -18 0 -19 -14 -4 -42 11 -21 12 -21 25 -3 8 10 14 31 14 46 0 14
10 38 21 53 19 24 20 31 9 51 -7 12 -9 32 -5 44 4 12 2 21 -4 21 -6 0 -11 -17
-11 -37z"/>
<path d="M1137 3469 l-28 -21 63 -34 c71 -38 78 -39 78 -21 0 8 -18 22 -41 32
-34 16 -39 22 -34 42 7 28 -2 29 -38 2z"/>
<path d="M6370 3476 c0 -7 -7 -19 -15 -26 -8 -7 -15 -19 -15 -26 0 -8 6 -11
15 -8 12 5 15 -2 16 -32 1 -22 5 -50 10 -64 5 -16 6 -2 2 40 -3 36 -5 80 -5
98 1 17 -1 32 -3 32 -3 0 -5 -6 -5 -14z"/>
<path d="M6395 3426 c-6 -13 -4 -21 3 -24 15 -5 16 -108 2 -117 -15 -10 -12
-35 5 -35 11 0 15 -11 15 -37 0 -20 3 -33 7 -29 11 10 11 49 1 69 -5 10 -5 24
0 35 5 10 2 43 -8 87 -13 54 -19 66 -25 51z"/>
<path d="M5282 3390 c-17 -28 -15 -54 9 -84 47 -59 113 -68 124 -15 9 39 -1
64 -36 94 -37 30 -79 33 -97 5z m78 -25 c23 -12 30 -22 30 -45 0 -23 -5 -30
-19 -30 -29 0 -71 39 -71 66 0 28 18 31 60 9z"/>
<path d="M5160 3372 c0 -5 9 -17 20 -27 47 -43 5 -112 -54 -89 -10 4 -16 18
-16 42 l0 35 22 -19 21 -19 -7 34 c-8 45 -9 45 -45 26 -20 -10 -29 -20 -24
-28 4 -7 6 -20 5 -29 -2 -9 4 -31 13 -47 12 -25 22 -31 49 -31 46 0 76 34 76
88 0 31 -5 45 -22 56 -25 18 -38 20 -38 8z"/>
<path d="M1083 3359 c-20 -20 -16 -73 6 -93 11 -10 35 -21 55 -26 40 -9 57 4
61 44 6 48 -91 106 -122 75z m66 -34 c33 -17 44 -38 28 -54 -16 -16 -26 -14
-64 15 -27 21 -32 29 -22 40 14 18 23 18 58 -1z"/>
<path d="M835 3333 c-30 -33 -36 -112 -10 -133 9 -8 13 -21 9 -33 -3 -10 -2
-18 2 -15 52 24 64 33 59 46 -3 7 -5 25 -5 38 0 14 -4 22 -10 19 -5 -3 -10
-15 -10 -26 0 -40 -25 -12 -28 30 -2 32 1 46 15 57 46 35 78 -3 66 -79 -6 -38
-5 -41 10 -28 25 20 23 112 -1 134 -28 25 -68 21 -97 -10z"/>
<path d="M1055 3230 c-3 -5 -3 -10 2 -11 4 0 -2 -4 -14 -9 -13 -5 -23 -13 -23
-18 0 -12 128 -73 134 -63 7 10 -7 23 -52 45 -27 14 -31 21 -26 41 6 25 -9 35
-21 15z"/>
<path d="M5233 3220 c3 -11 1 -18 -4 -14 -5 3 -14 2 -19 -1 -6 -4 -1 -18 14
-36 30 -35 25 -53 -16 -74 -23 -11 -34 -12 -44 -4 -17 14 -18 51 -2 67 6 6 8
15 4 19 -10 10 -46 -34 -46 -57 0 -10 14 -32 30 -50 17 -18 33 -43 36 -56 3
-13 11 -24 18 -24 6 -1 -1 -8 -16 -16 -44 -23 -34 -36 21 -28 28 4 56 2 69 -5
17 -9 23 -7 36 14 24 37 20 78 -10 109 -15 14 -30 26 -34 26 -14 0 -8 81 6 87
7 3 29 -4 47 -16 40 -25 47 -26 47 -7 0 13 -111 86 -132 86 -6 0 -8 -9 -5 -20z
m27 -176 c14 -36 13 -44 -8 -44 -35 0 -59 51 -29 63 22 10 27 7 37 -19z"/>
<path d="M96 3189 c-14 -14 -19 -35 -21 -91 -2 -40 -1 -65 2 -55 2 9 8 17 13
17 5 0 8 18 8 40 0 22 5 47 12 55 6 7 10 22 8 33 -3 18 -4 18 -22 1z"/>
<path d="M6420 3117 c0 -26 4 -47 10 -47 11 0 9 75 -3 86 -4 4 -7 -14 -7 -39z"/>
<path d="M840 3102 c0 -12 6 -19 17 -18 13 1 19 -10 25 -44 5 -27 4 -48 -2
-54 -12 -12 -13 -36 -2 -36 5 0 27 23 49 50 40 49 42 50 56 30 20 -28 83 -59
107 -53 25 7 36 47 21 79 -16 35 -63 51 -156 53 -44 1 -88 4 -97 7 -13 4 -18
0 -18 -14z m106 -23 c3 -6 -3 -21 -15 -32 l-21 -21 0 32 c0 32 21 45 36 21z
m122 -19 c56 -34 33 -76 -26 -46 -36 19 -46 32 -38 51 7 20 25 19 64 -5z"/>
<path d="M6420 3034 c0 -14 4 -23 10 -19 6 3 10 15 10 26 0 10 -4 19 -10 19
-5 0 -10 -12 -10 -26z"/>
<path d="M956 2956 l-28 -23 22 -16 22 -15 -31 -18 c-28 -17 -31 -23 -31 -70
0 -44 4 -54 25 -68 20 -13 25 -25 25 -56 0 -38 -1 -39 -20 -28 -11 7 -18 19
-15 26 10 27 -7 32 -26 8 -10 -13 -19 -26 -19 -29 0 -3 28 -19 62 -36 69 -35
104 -40 94 -15 -3 9 -6 18 -6 20 0 2 -6 4 -14 4 -16 0 -26 21 -26 56 0 16 4
22 14 18 9 -3 20 3 28 15 27 44 48 20 48 -55 0 -44 12 -58 24 -28 17 43 -8
133 -37 134 -6 1 -28 14 -47 30 -19 17 -42 30 -52 30 -23 0 -23 16 0 23 9 2
25 8 34 12 13 5 20 0 28 -19 12 -33 26 -33 34 -1 4 17 0 31 -14 45 -11 11 -20
28 -20 38 0 20 -18 42 -34 42 -6 -1 -24 -11 -40 -24z m41 -28 c-3 -7 -5 -2 -5
12 0 14 2 19 5 13 2 -7 2 -19 0 -25z m-8 -127 l24 -18 -24 -16 c-22 -16 -24
-15 -46 5 -17 16 -20 24 -12 35 15 18 29 16 58 -6z"/>
<path d="M6420 2948 c0 -13 -3 -34 -7 -47 -4 -17 -2 -22 8 -19 16 5 24 74 10
83 -7 4 -11 -3 -11 -17z"/>
<path d="M5149 2922 c-2 -17 3 -77 8 -82 2 -3 11 4 19 14 12 17 14 17 14 4 0
-9 9 -20 20 -23 15 -5 20 -15 20 -41 0 -39 -7 -41 -50 -15 -31 19 -72 18 -88
-3 -5 -6 -12 -24 -16 -39 -6 -24 -1 -34 28 -63 41 -41 86 -46 112 -11 16 22
16 22 10 -12 -8 -46 15 -81 53 -81 39 0 81 49 81 95 0 32 -21 65 -41 65 -14 0
-11 -26 6 -40 34 -28 1 -93 -43 -88 -28 3 -40 32 -27 66 6 16 7 16 16 -1 15
-25 30 -11 23 21 -9 35 -9 35 -33 22 -17 -8 -22 -8 -27 3 -3 9 16 35 50 67 51
48 69 78 49 81 -5 0 -24 2 -43 4 -19 1 -59 16 -87 33 -29 17 -53 28 -54 24z
m135 -113 c-17 -19 -19 -19 -25 -2 -4 13 0 20 15 24 29 8 32 2 10 -22z m-89
-79 c42 -43 -31 -75 -76 -34 -19 18 -25 45 -12 58 13 12 66 -3 88 -24z"/>
<path d="M70 2880 c0 -28 12 -60 22 -60 6 0 7 11 3 28 -7 31 -25 54 -25 32z"/>
<path d="M6411 2861 c-17 -11 -24 -74 -8 -68 10 3 30 68 23 74 -1 1 -8 -2 -15
-6z"/>
<path d="M83 2770 c0 -41 10 -59 22 -40 9 14 -3 80 -14 80 -5 0 -8 -18 -8 -40z"/>
<path d="M111 2694 c0 -11 3 -14 6 -6 3 7 2 16 -1 19 -3 4 -6 -2 -5 -13z"/>
<path d="M6362 2698 c-16 -21 -24 -58 -13 -58 6 0 14 12 17 28 4 15 12 30 18
34 8 6 8 8 0 8 -6 0 -16 -6 -22 -12z"/>
<path d="M116 2633 c9 -38 23 -63 34 -63 12 0 13 23 3 34 -4 4 -8 17 -8 29 0
13 -7 23 -18 25 -15 3 -17 -1 -11 -25z"/>
<path d="M5025 2573 c4 -63 4 -62 21 -30 l15 28 43 -25 c40 -23 56 -25 56 -5
0 7 -120 79 -132 79 -3 0 -4 -21 -3 -47z"/>
<path d="M6310 2595 c0 -8 5 -15 10 -15 6 0 10 7 10 15 0 8 -4 15 -10 15 -5 0
-10 -7 -10 -15z"/>
<path d="M6340 2584 c0 -8 5 -12 10 -9 6 4 8 11 5 16 -9 14 -15 11 -15 -7z"/>
<path d="M862 2578 c-7 -7 -12 -25 -12 -40 0 -21 10 -35 42 -58 48 -35 73 -38
88 -11 18 35 11 59 -27 90 -39 33 -71 39 -91 19z m69 -35 c30 -18 42 -63 17
-63 -26 0 -78 40 -78 60 0 25 22 26 61 3z"/>
<path d="M1052 2567 c-29 -31 -31 -106 -3 -131 11 -10 17 -25 14 -37 -5 -19
-5 -20 31 -3 40 19 40 21 26 58 -12 34 -32 34 -24 1 7 -27 -4 -33 -24 -13 -15
15 -16 72 -2 99 6 10 19 19 29 19 32 0 51 -33 51 -90 0 -45 2 -51 15 -40 25
20 19 88 -11 127 -31 40 -70 44 -102 10z"/>
<path d="M5330 2545 c0 -8 5 -15 10 -15 14 0 12 -64 -2 -78 -7 -7 -25 -12 -40
-12 -24 0 -28 4 -28 29 0 17 5 33 10 36 15 9 12 25 -4 25 -17 0 -26 -22 -26
-65 0 -43 24 -68 59 -60 56 13 88 84 61 136 -13 23 -40 26 -40 4z"/>
<path d="M6337 2554 c-4 -4 -7 -19 -6 -33 l0 -26 10 24 c10 26 8 47 -4 35z"/>
<path d="M6277 2543 c-12 -11 -8 -23 8 -23 8 0 15 7 15 15 0 16 -12 20 -23 8z"/>
<path d="M156 2503 c4 -15 11 -32 15 -37 5 -6 9 -18 9 -29 0 -10 5 -15 10 -12
6 3 10 1 10 -4 0 -6 5 -11 10 -11 6 0 10 16 10 35 0 34 -14 48 -23 23 -2 -7
-9 2 -14 21 -11 43 -37 57 -27 14z"/>
<path d="M6302 2475 c0 -16 2 -22 5 -12 2 9 2 23 0 30 -3 6 -5 -1 -5 -18z"/>
<path d="M4972 2474 c-17 -11 -22 -25 -22 -57 0 -36 5 -45 33 -64 43 -29 81
-30 101 -1 32 46 13 94 -51 127 -28 14 -34 14 -61 -5z m98 -80 c0 -32 -21 -39
-57 -20 -46 23 -55 39 -37 64 l15 22 40 -20 c30 -16 39 -26 39 -46z"/>
<path d="M6251 2416 c-1 -38 2 -57 9 -50 5 5 6 29 1 59 l-9 50 -1 -59z"/>
<path d="M842 2438 c-26 -26 -6 -44 111 -96 4 -2 7 3 7 10 0 8 -20 24 -45 36
-31 15 -45 28 -45 42 0 23 -10 26 -28 8z"/>
<path d="M225 2389 c-4 -27 -4 -53 -1 -56 3 -4 6 5 6 19 0 14 6 31 14 37 11 9
15 6 20 -15 4 -14 5 -29 1 -32 -3 -3 -5 0 -5 6 0 7 -4 12 -10 12 -5 0 -10 -16
-10 -35 0 -34 13 -47 23 -22 4 10 6 10 6 0 2 -26 21 -12 21 14 0 28 -40 123
-52 123 -3 0 -9 -23 -13 -51z"/>
<path d="M1855 2430 c-4 -6 -11 -7 -17 -4 -23 14 1 -64 49 -162 31 -64 56
-103 71 -110 15 -7 19 -14 13 -18 -17 -11 -13 -24 12 -40 48 -31 72 -30 114 7
24 21 53 36 77 40 51 8 75 30 56 52 -9 11 -16 13 -24 5 -5 -5 -16 -10 -24 -10
-8 0 -21 -8 -28 -17 -7 -10 -15 -15 -19 -11 -3 3 7 20 24 37 38 39 39 45 5 37
-21 -6 -25 -4 -21 8 4 9 2 16 -3 16 -6 0 -10 -5 -10 -11 0 -11 -41 -2 -50 11
-3 4 -15 12 -27 19 -13 6 -23 21 -23 33 0 12 -3 18 -6 15 -7 -7 -83 49 -97 70
-4 7 -17 13 -27 13 -11 0 -20 7 -20 15 0 17 -16 20 -25 5z m102 -95 c0 -8 -4
-12 -9 -9 -4 3 -8 9 -8 15 0 5 4 9 8 9 5 0 9 -7 9 -15z m33 -35 c0 -5 -2 -10
-4 -10 -3 0 -8 5 -11 10 -3 6 -1 10 4 10 6 0 11 -4 11 -10z m139 -89 c0 -3
-18 -20 -39 -38 -26 -20 -47 -29 -60 -26 -30 8 -24 20 19 43 22 11 42 24 46
29 6 11 35 4 34 -8z"/>
<path d="M6210 2420 c-9 -16 -8 -20 5 -20 8 0 15 9 15 20 0 11 -2 20 -5 20 -2
0 -9 -9 -15 -20z"/>
<path d="M6276 2431 c-4 -7 -5 -15 -2 -18 9 -9 19 4 14 18 -4 11 -6 11 -12 0z"/>
<path d="M5370 2384 c0 -20 -8 -28 -37 -40 -52 -20 -66 -29 -71 -42 -5 -16 17
-15 52 3 36 19 56 19 56 0 0 -8 7 -15 15 -15 11 0 15 12 15 44 0 49 -7 76 -21
76 -5 0 -9 -11 -9 -26z"/>
<path d="M6190 2380 c0 -5 5 -10 10 -10 6 0 10 5 10 10 0 6 -4 10 -10 10 -5 0
-10 -4 -10 -10z"/>
<path d="M6205 2350 c-10 -11 -26 -20 -35 -20 -36 0 -57 -41 -64 -125 -4 -55
-3 -75 4 -65 5 8 10 23 10 33 0 11 9 30 20 44 11 14 20 33 20 41 0 13 -3 12
-14 -4 -19 -26 -28 -14 -12 16 7 14 20 24 29 24 9 -1 17 4 17 12 0 12 19 19
43 15 4 0 7 10 7 24 0 30 -2 31 -25 5z"/>
<path d="M1085 2339 c-4 -5 6 -14 20 -19 30 -11 62 -75 47 -93 -5 -7 -6 -20
-3 -31 6 -16 15 -10 59 40 51 58 64 91 40 98 -32 10 -158 14 -163 5z m129 -27
c3 -5 -2 -19 -10 -31 l-16 -22 -15 20 c-8 12 -11 26 -8 31 7 12 42 13 49 2z"/>
<path d="M300 2300 c0 -25 3 -31 10 -20 5 8 12 11 15 8 4 -4 3 -13 -1 -20 -12
-18 -15 -78 -4 -78 4 0 11 6 13 13 4 7 6 6 6 -5 1 -9 -4 -18 -9 -20 -14 -4 18
-48 36 -48 9 0 14 10 14 28 l1 27 19 -24 c11 -13 20 -30 20 -39 0 -12 3 -13
11 -5 12 12 -1 40 -36 81 l-20 24 -5 -23 c-10 -39 -26 -32 -24 11 1 23 -2 37
-7 34 -6 -3 -7 4 -4 18 4 16 0 32 -14 49 l-20 24 -1 -35z"/>
<path d="M817 2323 c-15 -14 -6 -61 16 -81 53 -49 117 -51 117 -3 0 51 -102
115 -133 84z m95 -54 c9 -11 15 -26 12 -33 -4 -11 -13 -10 -45 5 -21 11 -39
21 -39 23 0 3 -3 12 -7 22 -5 15 -2 16 28 11 19 -4 42 -16 51 -28z"/>
<path d="M2765 2305 c-65 -64 15 -166 102 -130 33 14 46 41 45 90 -2 64 -98
90 -147 40z"/>
<path d="M2285 2310 c3 -5 8 -10 11 -10 2 0 4 5 4 10 0 6 -5 10 -11 10 -5 0
-7 -4 -4 -10z"/>
<path d="M4889 2308 c0 -2 -1 -21 -2 -42 -2 -43 17 -61 26 -25 l6 22 45 -27
c53 -31 66 -32 66 -8 0 12 -21 28 -64 50 -60 30 -75 36 -77 30z"/>
<path d="M4411 2262 c-7 -13 -21 -22 -36 -22 -22 0 -24 -4 -22 -37 3 -54 23
-51 52 7 25 50 31 99 6 52z"/>
<path d="M6180 2265 c0 -8 4 -15 9 -15 5 0 11 7 15 15 3 9 0 15 -9 15 -8 0
-15 -7 -15 -15z"/>
<path d="M6072 2209 c-1 -21 -10 -43 -22 -54 -19 -18 -20 -17 -20 6 -1 47 -19
-5 -26 -74 -5 -47 -3 -67 5 -67 6 0 11 16 11 38 0 21 9 48 20 62 l20 25 0 -29
c0 -21 3 -27 10 -20 7 7 9 40 7 80 -1 38 -4 53 -5 33z"/>
<path d="M5273 2223 c-9 -3 -6 -13 9 -33 20 -27 20 -30 4 -54 -34 -52 -13 -49
59 10 70 57 69 74 -5 78 -30 2 -61 1 -67 -1z m87 -31 c0 -10 -41 -35 -47 -28
-11 11 7 36 27 36 11 0 20 -3 20 -8z"/>
<path d="M1294 2185 c7 -33 6 -35 -44 -56 -45 -19 -60 -36 -45 -51 3 -3 22 3
43 13 69 32 81 33 88 4 3 -14 11 -24 18 -22 16 5 14 14 -18 85 -31 68 -52 82
-42 27z"/>
<path d="M818 2183 c-10 -11 -18 -22 -18 -25 0 -5 37 -24 123 -66 4 -2 7 4 7
12 0 8 -20 24 -44 35 -30 13 -45 26 -48 41 -3 22 -3 22 -20 3z"/>
<path d="M4812 2157 c-42 -45 -15 -106 55 -123 79 -20 115 87 44 129 -40 23
-73 21 -99 -6z m94 -30 c23 -20 25 -26 15 -45 -15 -27 -34 -28 -77 -1 -38 23
-38 23 -24 50 14 26 53 24 86 -4z"/>
<path d="M460 2095 c0 -57 11 -115 22 -115 11 0 -1 131 -13 145 -5 5 -9 -7 -9
-30z"/>
<path d="M380 2099 c0 -11 4 -18 10 -14 5 3 7 12 3 20 -7 21 -13 19 -13 -6z"/>
<path d="M5930 2078 c-11 -18 -20 -41 -20 -50 0 -9 -4 -20 -10 -23 -13 -8 -13
-41 1 -66 10 -20 11 -20 30 -3 48 43 74 164 37 172 -11 2 -25 -9 -38 -30z m35
-42 c-7 -41 -29 -76 -48 -76 -14 0 1 79 18 97 8 8 15 19 15 24 0 6 5 7 11 4 6
-5 8 -23 4 -49z"/>
<path d="M490 2090 c0 -8 12 -26 27 -42 l27 -28 -22 -23 c-12 -13 -22 -28 -22
-33 0 -6 18 -28 40 -49 43 -42 57 -28 15 15 l-25 27 20 18 c29 26 25 46 -20
90 -22 22 -40 33 -40 25z"/>
<path d="M5356 2091 c-3 -5 1 -16 9 -24 32 -32 1 -97 -45 -97 -26 0 -35 22
-24 58 5 21 8 23 11 9 7 -28 28 -14 31 21 l3 32 -35 -17 c-20 -9 -35 -22 -34
-27 1 -6 -1 -23 -5 -39 -18 -68 51 -93 103 -37 15 16 30 41 32 54 8 41 -29 95
-46 67z"/>
<path d="M796 2068 c-14 -44 -12 -58 8 -76 30 -28 61 -42 90 -42 23 0 26 4 26
33 0 37 -27 69 -73 86 -37 14 -47 14 -51 -1z m74 -40 c38 -26 47 -43 27 -51
-24 -9 -82 25 -85 51 -2 14 2 22 11 22 8 0 29 -10 47 -22z"/>
<path d="M400 2050 c12 -23 50 -27 50 -5 0 8 -3 15 -7 16 -5 0 -18 2 -31 5
-20 3 -21 2 -12 -16z"/>
<path d="M1292 2007 c-24 -26 -29 -66 -10 -85 7 -7 8 -12 4 -12 -5 0 3 -11 18
-25 27 -25 66 -34 66 -16 0 6 -14 18 -30 28 -31 18 -48 53 -35 73 4 6 18 16
32 21 38 14 73 -21 73 -74 0 -35 2 -38 16 -27 22 19 11 76 -22 111 -35 37 -81
39 -112 6z"/>
<path d="M4720 1968 l1 -53 20 25 21 24 45 -24 c37 -20 46 -21 53 -10 5 8 8
15 7 16 -5 5 -139 74 -143 74 -2 0 -4 -24 -4 -52z"/>
<path d="M5864 2008 c-5 -7 -11 -33 -14 -58 l-5 -45 -20 33 c-11 17 -23 32
-27 32 -12 0 -28 -71 -28 -122 0 -68 17 -59 25 12 4 33 10 60 15 60 4 0 13
-13 20 -29 19 -47 37 -28 44 51 8 71 5 90 -10 66z"/>
<path d="M3949 1943 c-6 -15 -16 -31 -22 -35 -8 -5 -7 -8 4 -8 20 0 49 31 49
53 0 27 -19 20 -31 -10z"/>
<path d="M597 1943 c-3 -8 -1 -73 4 -83 1 -3 4 10 8 27 9 48 30 28 38 -35 3
-28 9 -49 14 -47 8 6 4 43 -12 93 -10 31 -44 60 -52 45z"/>
<path d="M793 1931 c-14 -22 0 -34 73 -67 21 -10 42 -20 47 -22 4 -2 7 1 7 7
0 6 -20 21 -45 33 -27 13 -45 29 -47 41 -4 28 -21 31 -35 8z"/>
<path d="M5355 1920 c-4 -6 1 -17 11 -25 18 -13 18 -14 -2 -42 -26 -35 -74
-44 -74 -14 0 11 5 23 10 26 6 3 10 16 10 27 0 20 -1 20 -20 3 -28 -25 -38
-85 -16 -100 42 -31 130 38 124 98 -3 33 -30 49 -43 27z"/>
<path d="M681 1884 c0 -16 4 -51 9 -79 6 -41 9 -46 15 -27 8 25 16 27 33 10 6
-6 15 -8 19 -4 5 4 -7 20 -24 35 -32 27 -43 51 -23 51 6 0 13 -7 16 -15 4 -8
12 -15 20 -15 20 0 17 27 -3 33 -10 4 -28 14 -40 23 -22 16 -23 16 -22 -12z"/>
<path d="M5686 1883 c-57 -61 -61 -182 -5 -152 19 9 69 77 69 91 0 17 -19 7
-26 -14 -9 -30 -32 -51 -48 -45 -10 4 -12 16 -6 46 9 50 27 73 54 69 13 -2 21
3 21 12 0 26 -32 22 -59 -7z"/>
<path d="M3868 1870 c-14 -10 -28 -17 -31 -14 -3 4 -5 -3 -4 -15 1 -17 3 -18
17 -7 8 7 23 16 33 19 9 4 17 13 17 22 0 19 -2 19 -32 -5z"/>
<path d="M4646 1869 c-70 -55 24 -162 105 -119 10 6 19 17 19 25 0 8 5 15 10
15 14 0 12 32 -4 52 -12 17 -74 48 -94 48 -5 0 -21 -9 -36 -21z m78 -30 c40
-23 43 -34 20 -60 -14 -16 -17 -16 -55 2 -40 20 -50 44 -27 67 16 16 21 15 62
-9z"/>
<path d="M787 1789 c-3 -25 0 -54 9 -75 8 -20 10 -34 4 -34 -29 0 -1 -21 75
-55 47 -21 85 -43 85 -47 0 -5 10 -8 23 -6 16 2 21 9 19 23 -2 11 -4 36 -6 55
-2 19 -4 38 -5 41 -3 13 -37 46 -53 52 -10 3 -18 13 -18 21 0 21 -69 66 -101
66 -23 0 -27 -5 -32 -41z m101 -28 c2 -12 -1 -21 -7 -21 -14 0 -72 55 -65 62
12 12 69 -20 72 -41z m63 -51 c18 -10 27 -40 12 -40 -10 0 -43 32 -43 42 0 11
7 10 31 -2z m-74 -9 c13 12 19 4 25 -35 4 -26 -19 -32 -27 -7 -3 12 -13 21
-21 21 -8 0 -14 8 -14 17 0 13 3 14 12 5 8 -8 15 -9 25 -1z m111 -89 c5 -17
-14 -15 -43 4 -14 9 -25 25 -25 36 0 20 1 19 32 -4 18 -14 34 -30 36 -36z"/>
<path d="M1340 1812 c0 -15 22 -31 36 -25 17 6 56 -56 48 -80 -3 -10 0 -24 6
-32 10 -12 18 -7 48 33 20 26 40 49 44 50 12 6 9 38 -4 50 -15 12 -178 16
-178 4z m150 -35 c0 -7 -9 -18 -19 -24 -16 -10 -22 -8 -35 12 -16 25 -16 25
19 25 21 0 35 -5 35 -13z"/>
<path d="M5363 1779 c-7 -7 -13 -19 -13 -26 0 -7 -22 -20 -50 -30 -27 -10 -50
-24 -50 -31 0 -8 6 -12 13 -9 6 3 29 12 50 21 36 16 37 16 37 -4 0 -11 4 -20
10 -20 11 0 23 58 18 89 -2 18 -5 20 -15 10z"/>
<path d="M5602 1749 c-1 -30 -8 -52 -20 -62 -26 -24 -28 -22 -24 23 4 40 -10
55 -22 24 -9 -24 -7 -92 3 -99 6 -3 24 8 41 25 28 28 31 35 27 83 l-3 52 -2
-46z"/>
<path d="M5478 1736 c-20 -15 -25 -51 -5 -43 9 3 11 -10 9 -52 -3 -42 -1 -53
8 -45 7 7 10 38 8 82 -3 65 -4 70 -20 58z"/>
<path d="M2825 1730 c-4 -6 3 -10 14 -10 25 0 27 6 6 13 -8 4 -17 2 -20 -3z"/>
<path d="M4543 1708 c2 -7 0 -23 -4 -35 -5 -14 -4 -25 3 -29 9 -6 23 7 31 31
2 5 24 -3 50 -18 44 -26 67 -28 67 -7 0 12 -113 70 -136 70 -8 0 -14 -6 -11
-12z"/>
<path d="M1566 1691 c-4 -5 -2 -12 4 -16 16 -10 11 -42 -7 -49 -71 -25 -82
-31 -74 -45 8 -12 18 -11 63 8 l53 22 22 -25 c25 -29 40 -18 22 16 -7 13 -15
25 -18 28 -3 3 -14 18 -23 35 -18 32 -33 41 -42 26z"/>
<path d="M3045 1690 c-11 -18 5 -31 25 -20 11 6 32 8 47 5 27 -6 27 -6 9 9
-22 18 -72 21 -81 6z"/>
<path d="M5372 1678 c-7 -7 -12 -22 -12 -35 0 -20 -5 -22 -62 -25 -38 -2 -63
-8 -66 -15 -2 -7 3 -13 12 -13 9 0 16 -7 16 -15 0 -9 -6 -12 -15 -9 -11 4 -15
-1 -17 -17 -1 -13 -2 -41 -4 -62 -1 -21 -10 -54 -19 -73 -14 -30 -15 -38 -4
-49 12 -11 21 -11 52 0 48 16 75 45 84 85 4 22 1 34 -11 43 -12 9 -14 19 -8
42 10 35 42 48 42 16 0 -12 5 -21 10 -21 6 0 10 28 10 63 1 57 2 60 15 43 8
-11 15 -32 15 -48 0 -17 5 -28 14 -28 17 0 23 14 30 76 l5 49 -10 -42 c-13
-55 -26 -55 -35 2 -6 45 -20 55 -42 33z m-72 -103 c0 -8 -7 -15 -15 -15 -16 0
-20 12 -8 23 11 12 23 8 23 -8z m-18 -67 c-12 -12 -25 -18 -29 -14 -4 4 3 16
17 26 32 24 40 16 12 -12z m22 -85 c-17 -27 -62 -49 -75 -36 -9 9 -8 19 6 40
17 25 19 26 25 8 7 -19 7 -18 19 4 7 12 10 29 7 36 -2 7 -2 16 2 20 12 11 27
-56 16 -72z"/>
<path d="M3230 1650 c-9 -6 -10 -10 -3 -10 6 0 15 5 18 10 8 12 4 12 -15 0z"/>
<path d="M3611 1650 c-9 -5 -7 -9 8 -13 12 -3 23 -2 26 3 7 11 -19 20 -34 10z"/>
<path d="M1032 1586 c6 -51 46 -103 72 -93 25 10 19 24 -14 31 -19 3 -30 12
-30 22 0 15 2 15 25 0 33 -22 38 -20 30 11 -8 34 -45 73 -69 73 -16 0 -18 -6
-14 -44z m53 -6 c10 -11 14 -20 8 -20 -5 0 -18 9 -28 20 -10 11 -14 20 -8 20
5 0 18 -9 28 -20z"/>
<path d="M1148 1541 c2 -45 9 -74 18 -82 12 -10 14 -3 15 42 l1 54 10 -45 c9
-43 32 -80 49 -80 4 0 11 24 16 53 l9 52 7 -62 c11 -87 27 -90 27 -6 0 73 -5
86 -33 96 -19 7 -22 3 -33 -58 l-7 -40 -20 65 c-12 36 -26 68 -31 72 -26 18
-31 6 -28 -61z"/>
<path d="M4450 1582 c-37 -37 -38 -54 -4 -81 41 -32 91 -37 122 -14 54 40 24
104 -55 119 -27 5 -37 1 -63 -24z m85 -19 c40 -19 43 -32 16 -57 -17 -16 -21
-16 -54 0 -43 21 -55 44 -31 61 23 17 26 16 69 -4z"/>
<path d="M813 1593 c-21 -8 -15 -58 10 -79 25 -23 70 -44 92 -44 19 0 20 50 3
71 -25 30 -84 59 -105 52z m68 -50 c16 -10 29 -25 29 -35 0 -10 -2 -18 -3 -18
-13 0 -67 33 -82 50 -18 19 -17 20 4 20 13 0 36 -8 52 -17z"/>
<path d="M3463 1570 c-23 -9 -32 -30 -13 -30 6 0 10 5 10 10 0 6 9 10 19 10
11 0 23 5 26 10 7 12 -12 12 -42 0z"/>
<path d="M5124 1559 c-53 -27 -85 -149 -41 -157 35 -7 68 9 87 41 30 49 24 55
-15 13 -35 -39 -51 -42 -68 -14 -25 39 38 107 85 92 15 -5 19 -2 16 13 -4 21
-34 27 -64 12z"/>
<path d="M1613 1520 c-33 -13 -46 -46 -34 -81 l10 -29 -39 23 c-31 17 -43 20
-57 11 -40 -25 -20 -103 38 -146 37 -27 58 -29 73 -6 13 22 1 35 -18 19 -29
-24 -89 30 -84 76 2 23 7 28 28 25 14 -1 31 -10 38 -20 9 -11 29 -17 62 -19
53 -1 66 11 27 26 -32 12 -49 36 -45 63 2 18 10 24 36 26 42 4 70 -19 74 -62
4 -40 22 -41 26 -1 6 60 -77 119 -135 95z"/>
<path d="M1343 1436 c1 -41 6 -61 16 -64 11 -4 13 4 8 37 -3 22 -1 41 3 41 28
0 40 -16 46 -61 8 -61 24 -64 24 -6 0 49 -30 87 -67 87 -12 0 -24 6 -27 13 -3
6 -4 -15 -3 -47z"/>
<path d="M823 1461 c-15 -24 -10 -28 71 -65 68 -30 67 -30 60 -12 -3 7 -27 23
-55 36 -32 16 -49 30 -49 42 0 23 -12 23 -27 -1z"/>
<path d="M4349 1458 c0 -1 -2 -23 -4 -48 l-5 -45 21 24 20 24 45 -21 c51 -25
64 -27 64 -9 -1 13 -139 87 -141 75z"/>
<path d="M4966 1444 c-16 -7 -32 -11 -37 -8 -5 3 -9 -12 -9 -33 0 -21 -3 -48
-6 -60 -4 -16 -2 -23 7 -23 9 0 15 15 17 43 4 71 54 91 60 24 3 -34 22 -54 22
-23 0 7 3 27 6 44 8 41 -20 58 -60 36z"/>
<path d="M4832 1430 c-9 -11 -21 -41 -27 -67 -14 -65 -33 -66 -41 -4 -6 49
-16 59 -40 43 -17 -10 -23 -144 -6 -149 9 -4 12 12 12 56 0 34 4 61 9 61 5 0
14 -22 21 -50 18 -75 29 -67 61 40 l14 45 3 -58 c5 -88 26 -69 30 26 3 81 -4
93 -36 57z"/>
<path d="M840 1348 c0 -13 6 -31 13 -40 19 -25 79 -58 105 -58 19 0 23 5 20
26 -4 33 -60 81 -106 90 -29 6 -32 4 -32 -18z m100 -44 c23 -22 23 -24 5 -24
-25 0 -85 36 -85 51 0 18 52 1 80 -27z"/>
<path d="M1650 1315 c0 -49 29 -91 56 -81 23 9 63 -14 57 -32 -5 -12 -2 -14
18 -8 13 4 32 8 42 7 12 0 17 8 17 27 l1 27 19 -24 c11 -13 20 -29 20 -37 0
-8 8 -14 19 -14 15 0 20 10 25 50 4 28 10 50 15 50 7 0 23 -101 17 -107 -2 -2
-37 -3 -79 -4 -59 -1 -77 -5 -77 -15 0 -8 10 -14 23 -14 31 0 71 -43 64 -69
-4 -17 18 -51 26 -40 2 2 22 27 44 55 30 36 39 54 32 65 -5 7 -9 32 -9 54 0
22 -3 57 -7 78 -5 31 -10 37 -26 35 -16 -2 -24 -14 -32 -46 -12 -53 -27 -55
-38 -6 -13 64 -39 89 -92 92 -66 2 -99 -21 -92 -65 4 -20 2 -31 -4 -28 -5 4
-9 26 -9 51 0 32 -4 44 -15 44 -11 0 -15 -12 -15 -45z m158 -22 c3 -27 0 -32
-14 -26 -13 5 -15 2 -9 -18 7 -21 6 -22 -9 -10 -10 8 -16 28 -16 53 0 35 2 39
23 36 17 -2 23 -11 25 -35z m-81 -5 c-3 -8 -6 -5 -6 6 -1 11 2 17 5 13 3 -3 4
-12 1 -19z m223 -157 c0 -5 -7 -14 -16 -21 -13 -11 -19 -10 -37 8 l-21 22 37
0 c20 0 37 -4 37 -9z"/>
<path d="M5269 1343 c-1 -5 0 -16 1 -27 2 -25 -39 -66 -67 -66 -28 0 -29 14
-3 40 21 21 26 40 11 40 -15 0 -63 -79 -57 -95 11 -30 65 -18 107 24 41 40 54
91 24 91 -8 0 -16 -3 -16 -7z"/>
<path d="M4256 1324 c-29 -28 -38 -54 -26 -69 9 -11 6 -21 -11 -44 -19 -26
-24 -28 -46 -18 -18 8 -29 8 -44 -1 -28 -18 -51 -15 -47 5 2 11 16 20 38 23
40 7 60 17 60 31 0 10 -68 2 -107 -12 -21 -8 -23 -15 -23 -74 0 -57 -3 -69
-25 -89 -14 -13 -25 -31 -25 -40 0 -25 59 -56 106 -56 95 0 98 98 3 117 -22 4
-29 11 -29 29 0 17 6 24 20 24 11 0 20 -4 20 -10 0 -13 27 -13 32 1 5 15 41
18 53 4 6 -6 22 -16 36 -22 22 -10 30 -8 55 12 16 13 26 27 21 31 -4 4 -13 2
-19 -4 -14 -14 -58 -16 -58 -2 0 5 18 13 41 16 22 4 43 13 46 20 3 8 14 14 24
14 14 0 19 -7 19 -30 0 -24 4 -30 23 -30 29 0 90 22 111 39 20 17 21 50 1 57
-13 5 -13 8 1 21 25 26 13 48 -28 51 -21 2 -46 -1 -56 -7 -15 -8 -29 -5 -58 9
-46 24 -87 26 -108 4z m108 -44 c11 -11 0 -39 -19 -46 -23 -9 -85 24 -85 44 0
34 20 42 59 26 20 -8 40 -19 45 -24z m124 -2 c-5 -15 -74 -35 -84 -25 -4 3 -4
13 -1 22 8 19 91 22 85 3z m0 -59 c3 -16 -36 -39 -68 -39 -32 0 -29 34 5 46
39 15 59 13 63 -7z m-204 -5 c25 -10 8 -24 -27 -24 -30 1 -31 1 -13 15 23 17
20 17 40 9z m-149 -164 c41 -34 -11 -63 -63 -36 -36 18 -46 32 -36 47 8 14 79
6 99 -11z"/>
<path d="M4582 1307 c-14 -15 -22 -36 -22 -60 0 -34 2 -37 29 -37 18 0 42 10
58 25 30 26 20 35 -13 10 -21 -16 -54 -20 -54 -7 0 5 20 17 45 28 25 10 45 21
45 25 0 43 -53 53 -88 16z m48 -17 c-8 -5 -24 -10 -35 -10 -17 0 -17 2 -5 10
8 5 24 10 35 10 17 0 17 -2 5 -10z"/>
<path d="M2023 1209 c7 -60 20 -79 54 -79 13 0 33 -5 44 -11 19 -10 20 -7 17
47 -4 70 -25 86 -30 22 -3 -37 -6 -42 -23 -40 -27 5 -35 20 -35 63 0 25 -5 39
-16 43 -15 6 -16 0 -11 -45z"/>
<path d="M870 1235 c-7 -9 -11 -17 -9 -19 16 -14 132 -66 137 -61 8 8 -38 44
-56 45 -7 0 -23 11 -36 25 -21 22 -25 23 -36 10z"/>
<path d="M2194 1225 c-19 -29 -13 -78 12 -107 34 -37 134 -36 134 2 0 23 -25
27 -34 5 -7 -19 -31 -19 -61 1 -20 13 -25 25 -25 55 0 38 1 39 35 39 23 0 41
-7 52 -20 18 -21 43 -27 43 -11 0 5 -14 21 -31 35 -42 36 -102 36 -125 1z"/>
<path d="M5242 1206 c-7 -16 -24 -29 -49 -35 -21 -6 -47 -18 -58 -26 -19 -15
-18 -16 18 -10 21 3 45 9 53 12 8 3 14 -1 14 -11 0 -24 19 -19 29 7 24 66 19
119 -7 63z"/>
<path d="M2385 1158 c8 -76 11 -88 25 -88 5 0 10 23 10 51 0 61 10 57 60 -22
47 -73 61 -66 58 28 -2 50 -7 78 -15 81 -9 2 -13 -11 -13 -47 0 -28 -4 -51
-10 -51 -5 0 -10 4 -10 8 0 20 -74 102 -92 102 -17 0 -18 -5 -13 -62z"/>
<path d="M3723 1192 c-49 -5 -40 -22 12 -22 25 0 45 -4 45 -8 0 -4 -20 -28
-45 -52 -42 -41 -59 -80 -35 -80 29 0 140 26 140 32 0 5 -23 8 -52 8 l-52 0
53 54 c29 30 51 59 47 64 -6 10 -39 11 -113 4z"/>
<path d="M2590 1150 c-11 -26 -10 -36 6 -65 22 -41 53 -59 101 -59 72 0 95 81
37 132 -19 17 -37 22 -78 22 -50 0 -54 -2 -66 -30z m128 -13 c6 -5 12 -24 12
-42 0 -27 -5 -34 -25 -39 -15 -4 -38 -1 -53 6 -34 17 -45 83 -15 91 23 5 64
-3 81 -16z"/>
<path d="M3463 1173 c-52 -11 -79 -85 -47 -131 20 -29 100 -31 135 -3 28 22
18 41 -11 23 -32 -20 -88 -15 -100 8 -27 50 25 90 87 69 39 -13 54 -5 32 16
-16 16 -63 25 -96 18z"/>
<path d="M3615 1110 c2 -39 6 -74 8 -77 16 -16 26 15 24 75 -2 53 -5 67 -19
70 -14 3 -16 -6 -13 -68z"/>
<path d="M3928 1169 c-10 -5 -26 -9 -35 -7 -15 3 -18 -5 -18 -51 0 -35 5 -56
13 -58 8 -3 12 8 12 36 0 30 5 43 19 51 38 20 51 13 51 -30 0 -29 4 -40 15
-40 11 0 15 11 15 43 0 61 -28 82 -72 56z"/>
<path d="M2810 1095 c0 -68 2 -75 20 -75 16 0 20 6 18 33 -3 32 -3 32 42 32
43 0 45 -1 48 -32 4 -42 32 -46 32 -4 0 58 -13 122 -24 118 -6 -2 -11 -15 -11
-28 0 -22 -5 -24 -45 -24 -42 0 -45 2 -48 28 -2 15 -9 27 -18 27 -11 0 -14
-17 -14 -75z"/>
<path d="M3032 1093 c2 -50 7 -78 16 -81 8 -2 12 6 12 25 0 26 3 28 40 30 108
4 86 103 -22 103 l-49 0 3 -77z m92 41 c37 -14 10 -44 -40 -44 -19 0 -24 5
-24 25 0 20 5 25 24 25 13 0 31 -3 40 -6z"/>
<path d="M3244 1156 c-17 -8 -34 -21 -37 -29 -8 -22 32 -54 81 -62 26 -4 42
-12 42 -21 0 -20 -74 -19 -90 1 -16 19 -30 19 -30 1 0 -20 20 -33 67 -40 35
-5 46 -2 70 18 39 34 23 58 -47 71 -59 11 -76 31 -36 41 17 4 35 0 51 -10 25
-17 51 -13 39 5 -4 7 -71 41 -78 39 0 -1 -15 -7 -32 -14z"/>
<path d="M887 1143 c-11 -10 -8 -18 16 -45 21 -25 96 -68 117 -68 5 0 10 8 10
18 0 24 -57 77 -99 91 -40 13 -36 13 -44 4z m113 -70 c0 -15 -16 -17 -25 -3
-4 6 -11 8 -16 5 -5 -4 -9 -2 -9 4 0 5 -9 13 -20 16 -11 3 -20 12 -20 19 0 10
12 8 45 -7 25 -12 45 -27 45 -34z"/>
<path d="M5100 1056 c0 -8 6 -16 12 -18 8 -3 1 -17 -20 -38 -18 -18 -31 -34
-29 -37 7 -7 150 81 155 95 3 9 -13 12 -57 12 -46 0 -61 -3 -61 -14z m74 -15
c3 -5 -3 -11 -14 -14 -20 -5 -26 3 -13 16 9 10 21 9 27 -2z"/>
<path d="M2040 1051 c0 -6 5 -13 10 -16 19 -12 10 -23 -40 -44 -48 -21 -66
-41 -35 -41 8 0 38 9 67 21 l52 20 17 -22 c9 -12 22 -20 29 -17 10 3 10 7 -1
18 -8 8 -27 32 -42 53 -26 34 -57 50 -57 28z"/>
<path d="M931 1036 c-8 -10 -8 -16 1 -23 23 -18 130 -65 135 -59 10 10 -8 25
-37 31 -17 4 -43 20 -59 36 -24 23 -31 26 -40 15z"/>
<path d="M3920 959 c0 -11 -5 -29 -10 -40 -13 -23 -3 -25 22 -2 17 15 21 15
60 -3 24 -10 46 -22 49 -27 3 -4 11 -2 17 6 10 11 -1 21 -59 50 -39 21 -73 37
-75 37 -2 0 -4 -9 -4 -21z"/>
<path d="M5133 950 c4 -15 -5 -28 -31 -50 -40 -33 -62 -38 -62 -16 0 19 20 31
43 28 9 -2 17 1 17 7 0 5 3 16 6 24 5 13 0 14 -30 5 -20 -6 -36 -16 -36 -21 0
-5 -9 -20 -20 -35 -17 -21 -18 -28 -7 -39 28 -29 173 73 152 107 -12 19 -38
11 -32 -10z"/>
<path d="M960 939 c0 -25 24 -51 70 -74 73 -37 95 -32 70 15 -22 41 -140 91
-140 59z m106 -50 c12 -13 13 -19 4 -19 -17 0 -80 39 -80 50 0 14 56 -9 76
-31z"/>
<path d="M2100 909 c-13 -6 -27 -15 -31 -21 -18 -29 29 -80 84 -90 42 -8 33
17 -10 28 -50 12 -58 46 -15 63 25 10 35 10 60 -3 17 -9 32 -25 34 -38 4 -27
26 -35 34 -13 9 22 -32 63 -75 75 -43 12 -49 12 -81 -1z"/>
<path d="M3820 864 c-9 -3 -22 -14 -29 -26 -12 -20 -11 -24 18 -50 54 -49 151
-32 151 25 0 36 -83 66 -140 51z m74 -29 c39 -17 47 -40 17 -50 -21 -6 -84 16
-95 33 -4 6 2 15 11 21 23 14 25 14 67 -4z"/>
<path d="M1007 836 c-6 -15 10 -36 28 -36 5 0 24 -7 40 -16 54 -28 75 -35 69
-20 -3 7 -27 23 -54 35 -26 12 -51 28 -54 36 -7 19 -22 19 -29 1z"/>
<path d="M5076 843 c-3 -3 -6 -14 -6 -23 0 -21 -37 -55 -67 -63 -28 -6 -31 16
-5 35 10 7 21 18 25 25 14 22 -33 1 -53 -25 -64 -81 37 -84 107 -3 12 15 22
31 23 38 0 14 -15 25 -24 16z"/>
<path d="M2213 764 c-17 -26 -17 -27 15 -55 18 -16 39 -29 48 -29 8 0 13 -4 9
-9 -11 -18 13 -21 44 -5 31 15 31 17 15 35 -20 23 -46 25 -38 4 9 -23 -12 -18
-43 10 -28 25 -28 25 -8 41 36 28 115 -4 115 -48 0 -21 13 -24 28 -5 25 30
-52 87 -120 87 -40 0 -50 -4 -65 -26z"/>
<path d="M3689 763 c-1 -5 -1 -12 0 -17 1 -4 -4 -14 -10 -22 -9 -11 -8 -14 2
-14 8 0 20 4 28 9 10 7 31 1 64 -16 40 -20 51 -22 58 -11 6 9 -9 21 -59 45
-71 34 -81 37 -83 26z"/>
<path d="M1045 749 c4 -6 25 -23 46 -39 22 -16 35 -31 29 -35 -5 -3 -10 -10
-10 -15 0 -8 59 -34 73 -31 4 0 7 -3 7 -8 0 -5 8 -11 18 -14 9 -2 26 -8 37
-13 18 -7 18 -6 6 9 -7 9 -17 14 -22 11 -5 -3 -9 -1 -9 4 0 6 -12 13 -27 17
-58 14 -72 47 -17 38 l36 -6 -23 26 c-12 15 -29 27 -36 27 -7 0 -13 4 -13 9 0
11 -54 31 -82 31 -11 0 -16 -5 -13 -11z m90 -31 c14 -6 25 -15 25 -19 0 -9
-47 8 -64 23 -15 12 9 10 39 -4z"/>
<path d="M5033 735 c-6 -18 -68 -50 -113 -60 -17 -4 -30 -11 -30 -16 0 -13 28
-11 32 2 2 6 23 12 47 13 43 2 57 12 82 59 7 11 6 17 -1 17 -6 0 -13 -7 -17
-15z"/>
<path d="M3560 660 c-27 -27 -11 -53 45 -74 55 -22 78 -20 103 7 30 31 28 44
-10 67 -44 27 -111 27 -138 0z m113 -17 c37 -18 30 -37 -15 -41 -47 -4 -89 28
-69 52 15 17 33 15 84 -11z"/>
<path d="M2332 633 c-17 -7 -5 -23 19 -23 32 0 77 -39 72 -61 -9 -33 20 -21
67 26 37 38 42 47 30 55 -15 10 -165 12 -188 3z m143 -22 c7 -12 -31 -25 -46
-15 -8 4 -7 9 2 15 18 11 36 11 44 0z"/>
<path d="M4911 619 c-14 -5 -31 -7 -38 -5 -8 3 -16 -2 -20 -12 -3 -9 -20 -30
-37 -45 -17 -16 -26 -27 -21 -24 73 28 95 42 90 55 -3 10 0 12 10 8 19 -7 65
10 65 24 0 12 -17 12 -49 -1z"/>
<path d="M1160 591 c0 -11 58 -61 70 -61 4 0 6 -9 3 -20 -3 -11 -1 -20 5 -20
6 0 19 -3 29 -6 16 -6 16 -5 -2 9 -16 13 -17 18 -7 26 10 6 3 13 -27 27 -48
23 -54 37 -8 22 39 -13 48 -20 51 -44 2 -11 10 -20 19 -22 45 -9 -6 53 -67 82
-38 18 -66 21 -66 7z"/>
<path d="M3451 557 c-13 -37 -9 -43 18 -24 19 13 26 12 68 -9 26 -12 51 -20
55 -18 11 7 10 24 -2 24 -5 0 -36 13 -69 29 l-60 29 -10 -31z"/>
<path d="M2585 546 c18 -13 17 -15 -19 -30 -21 -9 -42 -16 -47 -16 -4 0 -11
-5 -15 -12 -9 -14 68 -3 96 14 14 9 25 9 45 0 29 -14 55 -16 55 -4 0 10 -97
62 -117 62 -15 0 -14 -2 2 -14z"/>
<path d="M4864 542 c-9 -7 -37 -62 -31 -62 11 0 57 59 50 63 -5 3 -13 3 -19
-1z"/>
<path d="M4800 523 c-8 -3 -23 -13 -32 -22 -9 -9 -24 -22 -33 -29 -18 -15 -20
-32 -2 -32 26 0 87 21 87 30 0 5 -15 7 -32 4 -31 -5 -32 -4 -14 10 10 8 22 13
26 11 4 -3 15 4 25 15 19 21 9 25 -25 13z"/>
<path d="M3333 496 c-35 -17 -27 -40 21 -64 51 -26 93 -28 124 -6 22 15 23 17
5 36 -21 24 -78 48 -107 47 -11 -1 -31 -6 -43 -13z m93 -22 c19 -9 33 -22 31
-28 -6 -16 -63 -11 -93 8 -50 33 1 49 62 20z"/>
<path d="M1309 456 c-15 -10 -14 -13 6 -28 21 -16 24 -16 40 2 20 22 7 28 -14
8 -11 -11 -13 -10 -8 4 8 22 -4 29 -24 14z"/>
<path d="M2632 452 c-24 -19 -22 -52 3 -52 7 0 15 -5 17 -11 5 -14 88 -25 88
-12 0 6 -18 13 -40 17 -37 6 -61 28 -47 43 3 3 26 8 50 10 32 4 48 1 60 -12
10 -9 15 -21 12 -26 -4 -5 3 -9 14 -9 32 0 25 28 -11 50 -42 25 -114 26 -146
2z"/>
<path d="M3216 422 c-3 -10 -9 -23 -12 -29 -3 -8 1 -13 10 -13 9 0 16 5 16 10
0 15 22 12 65 -10 41 -21 87 -28 70 -11 -6 6 -40 23 -77 40 -59 26 -67 27 -72
13z"/>
<path d="M4757 420 c-22 -26 -6 -26 24 0 17 14 20 19 9 20 -9 0 -23 -9 -33
-20z"/>
<path d="M1363 418 c-10 -12 -9 -19 8 -36 21 -23 32 -25 63 -13 16 6 17 9 6
16 -9 5 -15 4 -18 -3 -2 -7 -8 -12 -14 -12 -5 0 -6 9 -3 20 4 11 2 20 -4 20
-6 0 -11 -6 -12 -12 -1 -7 -4 -2 -8 11 -5 20 -8 21 -18 9z"/>
<path d="M4660 392 c0 -5 -10 -14 -22 -20 l-23 -11 22 0 c12 -1 25 4 28 9 5 8
11 7 21 -1 11 -9 17 -9 29 1 8 7 15 17 15 23 0 5 -8 2 -19 -7 -16 -15 -19 -15
-24 -1 -7 16 -27 21 -27 7z"/>
<path d="M2801 372 c-13 -4 -29 -16 -35 -25 -9 -15 -6 -22 13 -38 13 -10 32
-19 42 -19 10 0 19 -7 19 -15 0 -19 7 -18 48 3 l32 18 -30 17 c-25 15 -30 16
-30 3 0 -8 6 -17 13 -20 6 -3 -1 -3 -18 1 -76 15 -74 64 3 63 31 -1 55 -17 65
-42 8 -23 40 -24 35 -2 -8 41 -100 73 -157 56z"/>
<path d="M3086 355 c-19 -14 -19 -15 -2 -34 10 -11 38 -27 63 -35 40 -14 47
-14 79 1 18 9 34 21 34 27 -2 41 -135 72 -174 41z m91 -12 c24 -10 43 -24 43
-30 0 -21 -38 -20 -88 3 -27 13 -31 18 -21 30 14 18 15 18 66 -3z"/>
<path d="M1430 350 c0 -5 5 -10 10 -10 6 0 10 5 10 10 0 6 -4 10 -10 10 -5 0
-10 -4 -10 -10z"/>
<path d="M4642 345 c-13 -7 -20 -15 -15 -18 12 -7 53 10 53 23 0 13 -9 12 -38
-5z"/>
<path d="M1447 331 c-16 -6 -17 -9 -5 -18 11 -9 16 -8 26 8 13 20 9 22 -21 10z"/>
<path d="M1481 316 c-8 -9 -11 -19 -7 -23 9 -9 29 13 24 27 -2 8 -8 7 -17 -4z"/>
<path d="M4588 323 c7 -3 16 -2 19 1 4 3 -2 6 -13 5 -11 0 -14 -3 -6 -6z"/>
<path d="M1507 293 c-14 -14 -6 -22 31 -32 52 -15 58 -14 33 8 -13 11 -30 17
-38 14 -11 -4 -14 -2 -9 5 8 13 -6 17 -17 5z"/>
<path d="M2980 291 c0 -15 -34 -28 -92 -36 -61 -8 -63 -29 -5 -55 55 -25 125
-27 134 -2 3 9 15 24 27 34 18 14 23 15 48 2 15 -8 29 -10 32 -6 7 12 -54 56
-79 59 -11 0 -30 4 -42 8 -15 5 -23 3 -23 -4z m43 -42 c-8 -8 -16 -8 -30 0
-16 9 -14 10 12 11 21 0 26 -3 18 -11z m-73 -24 c35 -18 41 -25 28 -30 -18 -7
-108 22 -108 35 0 10 12 20 24 20 6 -1 31 -12 56 -25z"/>
<path d="M4520 283 c-8 -3 -23 -14 -32 -23 -16 -17 -16 -19 -1 -32 15 -11 16
-11 10 5 -5 12 -1 17 13 17 12 0 20 7 20 18 0 13 2 14 9 3 7 -10 13 -11 30 -2
11 7 21 14 21 16 0 7 -51 5 -70 -2z"/>
<path d="M3150 235 c10 -12 7 -16 -16 -25 -63 -22 -71 -31 -26 -25 24 3 52 11
62 17 15 10 27 10 50 1 47 -18 35 4 -14 27 -55 24 -74 26 -56 5z"/>
<path d="M4446 231 c-4 -7 -5 -15 -2 -18 9 -9 19 4 14 18 -4 11 -6 11 -12 0z"/>
<path d="M2742 199 c-11 -17 -9 -19 26 -19 21 0 46 -6 57 -14 11 -7 30 -16 43
-20 36 -12 26 12 -13 29 -19 8 -50 21 -68 29 -30 13 -34 13 -45 -5z"/>
<path d="M4405 200 c4 -6 11 -8 16 -5 14 9 11 15 -7 15 -8 0 -12 -5 -9 -10z"/>
<path d="M2628 173 c-31 -8 -19 -32 26 -53 52 -23 108 -26 125 -6 23 27 -97
74 -151 59z m80 -23 c44 -21 55 -40 24 -40 -15 0 -76 24 -91 36 -5 4 9 24 18
24 4 0 26 -9 49 -20z"/>
<path d="M3203 170 c-49 -20 -12 -59 55 -60 23 0 42 5 42 10 0 6 -18 10 -40
10 -22 0 -40 4 -40 8 0 32 80 44 111 16 10 -9 25 -14 35 -12 17 3 17 4 0 21
-19 19 -122 23 -163 7z"/>
<path d="M1875 130 c-4 -6 -4 -14 -1 -17 3 -4 6 -1 6 5 0 7 4 12 10 12 5 0 7
-7 4 -15 -7 -17 4 -19 26 -5 17 10 14 15 -17 24 -12 4 -24 2 -28 -4z"/>
<path d="M2502 120 l-23 -19 25 -7 c30 -7 34 -20 9 -27 -10 -3 -3 -5 15 -6 17
0 32 4 32 9 0 6 -15 17 -32 25 l-33 14 40 1 c23 0 58 -9 80 -20 42 -21 55 -24
55 -12 0 6 -59 31 -130 56 -8 3 -25 -3 -38 -14z"/>
<path d="M3435 133 c17 -2 40 -9 52 -15 13 -6 26 -8 30 -4 13 13 -21 26 -67
24 -32 -1 -36 -2 -15 -5z"/>
<path d="M1960 122 c0 -5 -10 -14 -22 -21 -18 -9 -18 -10 -3 -5 11 3 29 8 40
11 17 4 18 3 5 -7 -13 -10 -13 -11 0 -7 21 5 19 31 -2 35 -10 2 -18 -1 -18 -6z"/>
<path d="M2380 121 c0 -5 16 -15 35 -22 19 -7 35 -17 35 -21 0 -4 7 -8 15 -8
27 0 16 17 -17 28 -26 8 -28 10 -10 11 39 2 23 21 -18 21 -22 0 -40 -4 -40 -9z"/>
<path d="M3343 116 c-32 -15 -28 -26 10 -26 24 0 28 3 17 10 -13 8 -12 10 3
10 9 0 17 5 17 10 0 12 -18 11 -47 -4z"/>
<path d="M2012 90 c-7 -11 -8 -20 -2 -20 5 0 14 9 20 20 6 11 7 20 3 20 -5 0
-14 -9 -21 -20z"/>
<path d="M2065 97 c-12 -10 -14 -16 -7 -21 7 -4 12 -2 12 3 0 6 5 11 10 11 6
0 10 -7 10 -15 0 -16 36 -20 59 -6 9 6 10 11 2 15 -6 4 -11 2 -11 -3 0 -6 -7
-11 -16 -11 -10 0 -14 6 -11 14 3 8 -1 17 -9 20 -20 8 -17 8 -39 -7z"/>
<path d="M2296 102 c-3 -6 -34 -7 -73 -4 -60 4 -66 3 -56 -10 7 -8 10 -18 6
-21 -3 -4 -2 -7 4 -7 6 0 16 7 23 15 13 16 60 21 60 6 0 -5 12 -12 26 -15 17
-5 24 -12 20 -21 -6 -17 3 -19 24 -5 13 9 13 11 0 20 -8 5 -21 10 -27 10 -7 0
-13 5 -13 10 0 17 51 11 97 -11 24 -12 46 -19 48 -17 6 6 -72 45 -106 53 -15
4 -30 2 -33 -3z"/>
<path d="M3411 94 c-7 -8 -11 -17 -9 -20 6 -6 58 19 58 29 0 13 -35 7 -49 -9z"/>
<path d="M3596 98 c5 -8 0 -9 -16 -5 -30 8 -110 -3 -110 -14 0 -5 15 -9 34 -9
19 0 36 -5 38 -12 3 -8 23 -1 59 20 54 32 54 32 21 32 -23 0 -31 -4 -26 -12z"/>
<path d="M4123 103 c-7 -2 -13 -9 -13 -15 0 -7 4 -7 13 0 6 5 21 12 32 15 l20
5 -20 0 c-11 0 -26 -2 -32 -5z"/>
<path d="M3705 87 c11 -8 34 -16 50 -19 17 -3 37 -7 45 -10 8 -3 12 -3 8 -1
-4 2 -4 11 -1 19 3 10 -2 14 -18 14 -13 0 -42 3 -64 6 -37 6 -38 5 -20 -9z"/>
<path d="M3982 83 c2 -9 9 -18 16 -21 7 -2 11 2 10 10 -2 7 3 11 12 9 29 -8
73 -6 77 4 2 6 -23 11 -58 12 -51 2 -60 0 -57 -14z"/>
<path d="M3840 80 c0 -5 10 -11 23 -11 17 -1 18 -2 4 -6 -17 -4 -15 -23 3 -23
14 0 41 31 35 41 -8 12 -65 12 -65 -1z"/>
<path d="M3920 81 c0 -12 39 -25 47 -17 4 3 -1 6 -10 6 -9 0 -17 5 -17 10 0 6
-4 10 -10 10 -5 0 -10 -4 -10 -9z"/>
<path d="M2210 60 c-8 -5 -10 -10 -5 -10 6 0 17 5 25 10 8 5 11 10 5 10 -5 0
-17 -5 -25 -10z"/>
<path d="M3660 61 c-14 -4 -20 -9 -15 -13 6 -3 24 1 40 8 32 14 17 17 -25 5z"/>
<path d="M3736 44 c-4 -10 -1 -14 6 -12 15 5 23 28 10 28 -5 0 -13 -7 -16 -16z"/>
</g>
</svg>
